<svg width="32" height="31" viewBox="0 0 32 31" fill="none" xmlns="http://www.w3.org/2000/svg">
<path opacity="0.942" fill-rule="evenodd" clip-rule="evenodd" d="M15.3593 3.75769C15.7929 3.76042 16.1966 3.86783 16.5702 4.07996C17.0854 4.41716 17.59 4.76872 18.0839 5.13464C18.8676 5.20824 19.6547 5.24731 20.4452 5.25183C21.1019 5.4185 21.5762 5.79936 21.868 6.39441C22.0698 6.98035 22.2717 7.56628 22.4735 8.15222C22.9537 8.57802 23.4684 8.95888 24.0175 9.2948C24.652 9.80861 24.9042 10.4629 24.7743 11.2577C24.573 11.9005 24.3812 12.5451 24.1991 13.1913C24.3721 13.8206 24.5638 14.4457 24.7743 15.0663C24.8962 15.7275 24.7347 16.3135 24.2899 16.8241C23.9624 17.0753 23.6293 17.3195 23.2909 17.5565C24.5321 18.7577 25.7733 19.9589 27.0145 21.16C27.1672 21.4958 27.0965 21.779 26.8026 22.0096C25.7842 22.3934 24.775 22.7937 23.7753 23.2108C23.3959 24.1265 23.0226 25.0444 22.6551 25.9647C22.3577 26.4147 21.9844 26.4831 21.535 26.1698C20.071 24.7432 18.5977 23.3272 17.1151 21.9218C16.6451 22.3152 16.1002 22.5301 15.4803 22.5663C15.2551 22.5595 15.0331 22.5302 14.8143 22.4784C14.4644 22.2914 14.1213 22.1156 13.785 21.951C12.3319 23.3573 10.8788 24.7635 9.42566 26.1698C9.04439 26.4583 8.69116 26.429 8.36609 26.0819C7.98264 25.1249 7.59914 24.1678 7.2157 23.2108C6.24755 22.8073 5.26871 22.4264 4.27917 22.0682C3.89179 21.8616 3.78079 21.5589 3.94617 21.16C5.18738 19.9589 6.42859 18.7577 7.6698 17.5565C7.33134 17.3195 6.99833 17.0753 6.67077 16.8241C6.226 16.3135 6.06454 15.7275 6.1864 15.0663C6.39686 14.4457 6.58855 13.8206 6.7616 13.1913C6.5983 12.5398 6.40655 11.8952 6.1864 11.2577C6.05644 10.4629 6.30872 9.80861 6.94324 9.2948C7.49234 8.95888 8.00698 8.57802 8.48718 8.15222C8.71381 7.43568 8.97616 6.73255 9.27429 6.04285C9.58157 5.62542 9.99534 5.36175 10.5155 5.25183C11.306 5.24731 12.0931 5.20824 12.8768 5.13464C13.3921 4.79744 13.8966 4.44588 14.3905 4.07996C14.6984 3.90582 15.0213 3.7984 15.3593 3.75769ZM15.4198 4.98816C15.5865 5.01876 15.748 5.06758 15.9042 5.13464C16.5021 5.6157 17.148 6.02585 17.8417 6.36511C18.6927 6.41908 19.5403 6.47767 20.3846 6.54089C20.4755 6.62878 20.5663 6.71668 20.6571 6.80457C20.8837 7.52111 21.1461 8.22423 21.4442 8.91394C21.9962 9.42095 22.5916 9.87998 23.2303 10.2909C23.412 10.4472 23.5129 10.6425 23.5331 10.8768C23.374 11.4363 23.2024 11.993 23.0184 12.5468C22.8973 12.9764 22.8973 13.4061 23.0184 13.8358C23.1799 14.3046 23.3413 14.7733 23.5028 15.2421C23.598 15.6342 23.4668 15.9369 23.1093 16.1503C22.5398 16.5058 22.005 16.9062 21.5048 17.3514C21.4087 17.4786 21.328 17.6153 21.2626 17.7616C21.059 18.3936 20.837 19.0187 20.5966 19.6366C20.4784 19.7769 20.327 19.8648 20.1425 19.9003C19.4361 19.9198 18.7297 19.9394 18.0233 19.9589C17.8793 19.9888 17.738 20.0279 17.5995 20.076C16.9975 20.4438 16.4123 20.8344 15.8436 21.2479C15.6014 21.3651 15.3593 21.3651 15.1171 21.2479C14.6529 20.9159 14.1887 20.5839 13.7245 20.2518C13.55 20.1576 13.3684 20.0795 13.1796 20.0175C12.3958 19.9439 11.6087 19.9048 10.8182 19.9003C10.5315 19.8377 10.3398 19.6717 10.243 19.4022C10.0517 18.6902 9.7893 18.0066 9.45593 17.3514C8.88794 16.8668 8.29258 16.4176 7.6698 16.0038C7.50668 15.8638 7.42598 15.688 7.42761 15.4764C7.5682 14.9216 7.73979 14.3748 7.94226 13.8358C8.06335 13.4061 8.06335 12.9764 7.94226 12.5468C7.79017 12.0557 7.62869 11.5674 7.45788 11.0819C7.38408 10.7656 7.4749 10.5019 7.73035 10.2909C8.13401 10.0174 8.53762 9.74404 8.94128 9.47058C9.17336 9.3241 9.36511 9.13853 9.51648 8.91394C9.81461 8.22423 10.077 7.52111 10.3036 6.80457C10.417 6.67513 10.5482 6.56773 10.6971 6.4823C11.3833 6.46279 12.0696 6.44322 12.7557 6.42371C12.942 6.40343 13.1236 6.36441 13.3007 6.30652C13.9176 5.95929 14.5028 5.56865 15.0565 5.13464C15.1843 5.08515 15.3054 5.03632 15.4198 4.98816ZM14.7859 16.0357C14.4717 15.0798 17.9652 18.8163 18.0863 13.1913C18.8006 18.5233 16.9406 13.6446 17.2665 14.1874C17.3472 14.2265 18.2655 15.8777 17.5995 13.8358C18.2463 13.928 17.3784 13.0882 18.0233 13.1913C17.5876 13.6326 17.7389 13.0857 17.2665 13.4843C17.1273 13.7021 17.087 13.9365 17.1454 14.1874C17.2232 14.678 17.6978 15.6553 17.8017 16.1412C17.7815 16.1803 17.6643 16.2025 17.3573 15.7694C16.7544 15.4289 16.1288 15.1359 15.4803 14.8905C14.8319 15.1359 14.2063 15.4289 13.6034 15.7694C13.5832 15.7303 13.563 15.6913 13.5428 15.6522C13.6999 15.0142 13.7907 14.3697 13.8153 13.7186C13.7749 13.6405 13.7346 13.5624 13.6942 13.4843C13.2218 13.0857 12.3821 12.595 11.9463 12.1538C12.592 12.0561 11.5196 11.7476 12.1656 11.6499C12.2463 11.6108 12.8783 15.5548 12.609 15.1853C12.952 14.6288 14.5234 16.6316 14.7859 16.0357ZM8.51745 18.4647C8.55481 18.4712 8.58509 18.4907 8.60827 18.5233C8.78071 19.0542 8.96235 19.5815 9.1532 20.1053C9.49075 20.6549 9.98523 20.9967 10.6366 21.1307C11.3228 21.1502 12.009 21.1698 12.6952 21.1893C11.5145 22.3319 10.3339 23.4745 9.1532 24.6171C8.8303 23.8358 8.50734 23.0545 8.18445 22.2733C8.08884 22.183 7.9778 22.1146 7.85144 22.0682C7.12488 21.7948 6.39831 21.5214 5.67175 21.2479C6.63251 20.3279 7.5811 19.4002 8.51745 18.4647ZM22.3827 18.4647C23.3594 19.3807 24.3282 20.3084 25.2889 21.2479C24.4817 21.5604 23.6743 21.8729 22.8671 22.1854C22.7738 22.2779 22.7031 22.3854 22.6551 22.5077C22.3726 23.2108 22.0901 23.9139 21.8075 24.6171C20.6268 23.4745 19.4462 22.3319 18.2655 21.1893C18.9517 21.1698 19.6379 21.1502 20.3241 21.1307C20.9755 20.9967 21.4699 20.6549 21.8075 20.1053C22.018 19.5627 22.2096 19.0159 22.3827 18.4647Z" fill="#1EAD5E"/>
<path opacity="0.946" fill-rule="evenodd" clip-rule="evenodd" d="M15.2987 7.97645C15.5703 7.9468 15.8024 8.02497 15.995 8.21083C16.4289 9.05065 16.8628 9.89053 17.2968 10.7304C18.3034 10.9044 19.3125 11.0704 20.3241 11.2284C20.6326 11.4773 20.7033 11.7801 20.536 12.1366C19.8498 12.8007 19.1636 13.4648 18.4774 14.1288C18.5922 15.0589 18.7435 15.9866 18.9315 16.912C18.865 17.4426 18.5623 17.6379 18.0233 17.4979C17.1829 17.062 16.3353 16.6421 15.4803 16.2382C14.6254 16.6421 13.7778 17.062 12.9374 17.4979C12.4833 17.6348 12.1907 17.4883 12.0595 17.0585C12.2008 16.0818 12.342 15.1052 12.4833 14.1288C11.7971 13.4648 11.1109 12.8007 10.4247 12.1366C10.2574 11.7801 10.3281 11.4773 10.6366 11.2284C11.65 11.0813 12.6591 10.9153 13.6639 10.7304C14.0979 9.89053 14.5318 9.05065 14.9657 8.21083C15.0754 8.12428 15.1864 8.04618 15.2987 7.97645ZM15.4198 10.0858C15.1573 10.6817 14.8546 11.2579 14.5116 11.8143C14.4309 11.8534 14.3501 11.8924 14.2694 11.9315C13.6234 12.0292 12.9776 12.1269 12.3319 12.2245C12.7677 12.6658 13.2218 13.0857 13.6942 13.4843C13.7346 13.5624 13.7749 13.6405 13.8153 13.7186C13.7907 14.3697 13.6999 15.0142 13.5428 15.6522C13.563 15.6913 13.5832 15.7303 13.6034 15.7694C14.2063 15.4289 14.8319 15.1359 15.4803 14.8905C16.1288 15.1359 16.7544 15.4289 17.3573 15.7694C17.3775 15.7303 17.3977 15.6913 17.4178 15.6522C17.314 15.1663 17.2232 14.6781 17.1454 14.1874C17.087 13.9365 17.1273 13.7021 17.2665 13.4843C17.7389 13.0857 18.193 12.6658 18.6288 12.2245C17.9839 12.1214 17.3381 12.0238 16.6913 11.9315C16.6106 11.8924 16.5298 11.8534 16.4491 11.8143C16.1232 11.2716 15.8205 10.7149 15.5409 10.1444C15.5132 10.0977 15.4728 10.0782 15.4198 10.0858Z" fill="#1EAD5E"/>
</svg>
