<svg width="40" height="40" viewBox="0 0 40 40" fill="none" xmlns="http://www.w3.org/2000/svg">
<circle cx="20" cy="20" r="20" fill="#1EAD5E"/>
<path d="M28.25 17.25H27.625L23.3758 11.9383C23.1415 11.6455 22.8444 11.4092 22.5065 11.2468C22.1685 11.0844 21.7984 11 21.4234 11H13.0676C12.0453 11 11.1262 11.6223 10.7465 12.5715L8.875 17.3383C7.79844 17.6172 7 18.5863 7 19.75V24.125C7 24.4703 7.27969 24.75 7.625 24.75H9.5C9.5 26.8211 11.1789 28.5 13.25 28.5C15.3211 28.5 17 26.8211 17 24.75H22C22 26.8211 23.6789 28.5 25.75 28.5C27.8211 28.5 29.5 26.8211 29.5 24.75H31.375C31.7203 24.75 32 24.4703 32 24.125V21C32 18.9289 30.3211 17.25 28.25 17.25ZM13.25 26.625C12.216 26.625 11.375 25.784 11.375 24.75C11.375 23.716 12.216 22.875 13.25 22.875C14.284 22.875 15.125 23.716 15.125 24.75C15.125 25.784 14.284 26.625 13.25 26.625ZM16.0625 17.25H11.5676L13.0676 13.5H16.0625V17.25ZM17.9375 17.25V13.5H21.4234L24.4234 17.25H17.9375ZM25.75 26.625C24.716 26.625 23.875 25.784 23.875 24.75C23.875 23.716 24.716 22.875 25.75 22.875C26.784 22.875 27.625 23.716 27.625 24.75C27.625 25.784 26.784 26.625 25.75 26.625Z" fill="white"/>
</svg>
