<svg width="40" height="40" viewBox="0 0 40 40" fill="none" xmlns="http://www.w3.org/2000/svg">
<circle cx="20" cy="20" r="20" fill="#1EAD5E"/>
<path d="M31.2641 11.8773C29.7488 11.2418 28.2324 11 26.7168 11C21.9055 10.9996 17.0945 13.4352 12.2832 13.4352C11.0766 13.4352 9.8707 13.282 8.66406 12.8992C8.52852 12.8563 8.39258 12.8359 8.25977 12.8359C7.5875 12.8359 7 13.3562 7 14.0785V26.4715C7 26.9648 7.28242 27.4324 7.73594 27.6223C9.25117 28.2582 10.7676 28.5 12.2832 28.5C17.0945 28.5 21.9059 26.0645 26.7172 26.0645C27.9238 26.0645 29.1297 26.2176 30.3363 26.6004C30.4719 26.6434 30.6078 26.6637 30.7406 26.6637C31.4129 26.6637 32.0004 26.1434 32.0004 25.4211V13.0285C32 12.5348 31.7176 12.0676 31.2641 11.8773ZM8.875 14.9148C9.66094 15.1117 10.4812 15.2105 11.325 15.2637C11.0953 16.4117 10.0859 17.277 8.875 17.277V14.9148ZM8.875 26.0477V24.1813C10.2176 24.1813 11.3039 25.2465 11.3637 26.5797C10.4836 26.509 9.66094 26.3332 8.875 26.0477ZM19.5 23.5C17.7738 23.5 16.375 21.8207 16.375 19.75C16.375 17.6789 17.7742 16 19.5 16C21.2258 16 22.625 17.6789 22.625 19.75C22.625 21.8215 21.2254 23.5 19.5 23.5ZM30.125 24.5852C29.4406 24.4137 28.7301 24.3176 28.0031 24.2555C28.2324 23.2367 29.0773 22.4633 30.125 22.3305V24.5852ZM30.125 15.3621C28.9184 15.2094 27.982 14.202 27.9449 12.9578C28.7082 13.0426 29.4328 13.2012 30.125 13.4523V15.3621Z" fill="white"/>
</svg>
