<svg width="40" height="40" viewBox="0 0 40 40" fill="none" xmlns="http://www.w3.org/2000/svg">
<circle cx="20" cy="20" r="20" fill="#1EAD5E"/>
<path d="M20.1094 8C13.4199 8 8 13.4199 8 20.1094C8 26.7988 13.4199 32.2188 20.1094 32.2188C26.7988 32.2188 32.2188 26.7988 32.2188 20.1094C32.2188 13.4199 26.7988 8 20.1094 8ZM22.8975 25.0947L18.5908 21.9648C18.4395 21.8525 18.3516 21.6768 18.3516 21.4912V13.2734C18.3516 12.9512 18.6152 12.6875 18.9375 12.6875H21.2812C21.6035 12.6875 21.8672 12.9512 21.8672 13.2734V19.9971L24.9678 22.2529C25.2314 22.4434 25.2852 22.8096 25.0947 23.0732L23.7178 24.9678C23.5273 25.2266 23.1611 25.2852 22.8975 25.0947Z" fill="white"/>
</svg>
