<svg width="20" height="20" viewBox="0 0 20 20" fill="none" xmlns="http://www.w3.org/2000/svg">
<g clip-path="url(#clip0_18_163)">
<path opacity="0.965" fill-rule="evenodd" clip-rule="evenodd" d="M8.88226 0.601562C9.45126 0.601562 10.0203 0.601562 10.5893 0.601562C14.3326 1.0783 16.9859 3.03273 18.5493 6.46484C18.9017 7.36731 19.1305 8.29504 19.2358 9.24805C19.2358 9.81705 19.2358 10.3861 19.2358 10.9551C18.8471 14.2553 17.2267 16.7479 14.3745 18.4326C13.1857 19.0743 11.924 19.464 10.5893 19.6016C10.0203 19.6016 9.45126 19.6016 8.88226 19.6016C5.59263 19.1974 3.10013 17.577 1.40472 14.7402C0.763014 13.5514 0.373365 12.2897 0.235779 10.9551C0.235779 10.3861 0.235779 9.81705 0.235779 9.24805C0.695957 5.62424 2.5638 3.00803 5.83929 1.39941C6.81869 0.981448 7.833 0.715498 8.88226 0.601562ZM9.69867 1.78906C13.2644 1.95348 15.8188 3.63577 17.3618 6.83594C18.4156 9.51445 18.2053 12.0874 16.7309 14.5547C15.0604 17.014 12.7287 18.3004 9.73578 18.4141C6.74287 18.3004 4.41114 17.014 2.74066 14.5547C1.33371 12.2297 1.07394 9.78049 1.96136 7.20703C2.83048 5.02671 4.3334 3.44955 6.47015 2.47559C7.50844 2.0441 8.58461 1.81525 9.69867 1.78906Z" fill="#1EAD5E"/>
<path opacity="0.965" fill-rule="evenodd" clip-rule="evenodd" d="M9.51313 4.16409C9.87903 4.08429 10.145 4.20799 10.311 4.53519C10.3233 4.81971 10.3357 5.10419 10.3481 5.3887C11.7504 5.82608 12.4307 6.77856 12.3891 8.24613C12.2849 8.50541 12.0932 8.62909 11.8139 8.61722C11.5346 8.62909 11.3429 8.50541 11.2387 8.24613C11.1784 7.09692 10.5784 6.54648 9.43891 6.59476C8.46824 6.92162 8.1157 7.58339 8.3813 8.58011C8.54829 8.94501 8.81425 9.21097 9.17915 9.37796C9.62216 9.46439 10.0675 9.53861 10.5151 9.60062C11.5483 9.95349 12.173 10.6647 12.3891 11.7344C12.5155 13.3009 11.8352 14.3275 10.3481 14.8145C10.3357 15.099 10.3233 15.3835 10.311 15.668C10.145 16.0013 9.87903 16.1188 9.51313 16.0205C9.34614 15.9525 9.22861 15.835 9.16059 15.668C9.14823 15.3835 9.13584 15.099 9.12348 14.8145C7.72119 14.3771 7.04083 13.4246 7.08247 11.9571C7.18663 11.6978 7.37834 11.5741 7.65766 11.586C7.93698 11.5741 8.12869 11.6978 8.23286 11.9571C8.2932 13.1063 8.89314 13.6567 10.0327 13.6084C11.0033 13.2816 11.3559 12.6198 11.0903 11.6231C10.9233 11.2582 10.6573 10.9922 10.2924 10.8252C9.84942 10.7388 9.4041 10.6646 8.95649 10.6026C7.5643 10.0766 6.93963 9.06843 7.08247 7.57816C7.32735 6.44265 8.00768 5.71282 9.12348 5.3887C9.13584 5.10419 9.14823 4.81971 9.16059 4.53519C9.23563 4.36745 9.35315 4.24376 9.51313 4.16409Z" fill="#1EAD5E"/>
</g>
<defs>
<clipPath id="clip0_18_163">
<rect width="19" height="19" fill="white" transform="translate(0.254333 0.620117)"/>
</clipPath>
</defs>
</svg>
