<svg width="20" height="20" viewBox="0 0 20 20" fill="none" xmlns="http://www.w3.org/2000/svg">
<g clip-path="url(#clip0_18_177)">
<path opacity="0.954" fill-rule="evenodd" clip-rule="evenodd" d="M4.17729 0.808663C4.73178 0.767381 5.27564 0.824353 5.80888 0.979577C5.9694 1.10412 6.01171 1.26237 5.93579 1.45434C5.24468 2.1529 4.57997 2.87454 3.94161 3.61925C3.90856 3.76937 3.93274 3.90863 4.01413 4.03704C4.37065 4.41051 4.72721 4.78401 5.08373 5.15748C5.23492 5.26337 5.39203 5.27602 5.55508 5.19546C6.23085 4.52555 6.8956 3.8419 7.54925 3.14449C7.7325 3.06496 7.88358 3.10927 8.00247 3.27742C8.46679 5.12656 7.94707 6.58248 6.44339 7.64523C6.41921 9.16446 6.41921 10.6837 6.44339 12.2029C6.62468 12.3422 6.80597 12.4815 6.98726 12.6207C7.10096 12.0212 7.385 11.5338 7.83931 11.1585C8.03054 11.0267 8.23597 10.9254 8.45569 10.8546C9.01163 10.728 9.56761 10.6014 10.1235 10.4748C10.4347 10.3181 10.7489 10.1725 11.0662 10.038C11.0782 9.79616 11.0661 9.55559 11.03 9.31639C10.3732 8.77641 9.99857 8.06746 9.906 7.18946C9.16892 7.15163 8.78216 6.74652 8.74576 5.97407C8.76577 5.3772 9.04372 4.9784 9.57968 4.77767C9.55651 4.6861 9.5444 4.59114 9.54342 4.49281C9.60336 3.83697 9.6336 3.17863 9.63407 2.5178C9.83349 1.59993 10.3713 1.03655 11.2475 0.827653C12.2869 0.802331 13.3263 0.802331 14.3657 0.827653C15.2419 1.03655 15.7797 1.59993 15.9792 2.5178C15.9796 3.17863 16.0099 3.83697 16.0698 4.49281C16.0688 4.59114 16.0567 4.6861 16.0335 4.77767C16.784 5.1086 17.0317 5.68465 16.7768 6.5058C16.5608 6.97042 16.2043 7.19831 15.7072 7.18946C15.6147 8.06746 15.24 8.77641 14.5832 9.31639C14.541 9.54321 14.535 9.7711 14.5651 10C14.8364 10.1201 15.1084 10.2404 15.3809 10.3609C15.9363 10.453 16.4922 10.5417 17.0488 10.6267C17.8844 10.869 18.398 11.4324 18.5897 12.3169C18.6139 14.1653 18.6139 16.0137 18.5897 17.8621C18.4386 18.4761 18.07 18.8622 17.4839 19.0205C17.0125 19.0458 16.5412 19.0458 16.0698 19.0205C15.0815 18.8084 14.0965 18.5868 13.1148 18.3558C13.0967 18.5834 13.0907 18.8113 13.0967 19.0395C12.9033 19.0395 12.7099 19.0395 12.5166 19.0395C12.5285 18.8102 12.5164 18.5823 12.4803 18.3558C11.4921 18.5893 10.5011 18.8109 9.50717 19.0205C9.04789 19.0458 8.58865 19.0458 8.12937 19.0205C7.62971 18.8959 7.2792 18.5858 7.0779 18.09C6.03963 18.9975 4.86731 19.2571 3.56091 18.8686C3.40038 18.744 3.35808 18.5858 3.43401 18.3938C4.12511 17.6952 4.78983 16.9736 5.42818 16.2289C5.46125 16.0788 5.43706 15.9395 5.35566 15.8111C4.97267 15.3845 4.56778 14.9857 4.14103 14.6147C4.0274 14.5847 3.91863 14.5974 3.81471 14.6527C3.13893 15.3226 2.4742 16.0063 1.82054 16.7037C1.63772 16.7834 1.48665 16.7391 1.36732 16.5707C0.900923 14.7252 1.42062 13.2693 2.9264 12.2029C2.95057 10.6837 2.95057 9.16446 2.9264 7.64523C1.38305 6.54283 0.875438 5.04889 1.40358 3.16348C1.93012 1.85964 2.8547 1.0747 4.17729 0.808663ZM4.6849 1.41636C4.80262 1.4449 4.92351 1.46389 5.04747 1.47333C4.47112 2.05166 3.92123 2.65303 3.39775 3.27742C3.26105 3.65665 3.28522 4.02379 3.47026 4.37887C3.89931 4.8283 4.32837 5.27776 4.75741 5.72719C5.17648 5.9651 5.58739 5.95242 5.99017 5.68921C6.50383 5.15113 7.01746 4.6131 7.53112 4.07502C7.63192 5.07229 7.34791 5.92686 6.67907 6.63873C6.41678 6.86153 6.14485 7.07042 5.86327 7.26542C5.83909 9.03787 5.83909 10.8103 5.86327 12.5827C6.14485 12.7777 6.41678 12.9866 6.67907 13.2094C6.78179 13.3424 6.88454 13.4753 6.98726 13.6082C7.01144 14.7983 7.01144 15.9884 6.98726 17.1784C6.30714 18.0951 5.41882 18.4939 4.32232 18.3748C4.83598 17.8368 5.34961 17.2987 5.86327 16.7606C6.11454 16.3387 6.12665 15.9083 5.89953 15.4693C5.47049 15.0199 5.04142 14.5704 4.61238 14.121C4.24397 13.9101 3.8693 13.8975 3.48839 14.083C2.92744 14.6326 2.37753 15.196 1.83867 15.7731C1.73786 14.7759 2.02187 13.9213 2.69072 13.2094C2.953 12.9866 3.22493 12.7777 3.50652 12.5827C3.53069 10.8103 3.53069 9.03787 3.50652 7.26542C3.22493 7.07042 2.953 6.86153 2.69072 6.63873C1.82296 5.67671 1.59937 4.56893 2.01996 3.3154C2.56268 2.14483 3.45099 1.51182 4.6849 1.41636ZM11.6464 1.41636C12.42 1.41003 13.1934 1.41636 13.9669 1.43535C14.831 1.5303 15.3084 2.03038 15.399 2.93559C15.4172 3.23918 15.4232 3.54303 15.4172 3.84714C15.0304 3.84714 14.6437 3.84714 14.2569 3.84714C14.2629 3.49242 14.2569 3.13793 14.2388 2.78367C14.2252 2.74887 14.2071 2.71722 14.1844 2.68872C13.7285 2.64509 13.2692 2.6261 12.8066 2.63175C12.344 2.6261 11.8848 2.64509 11.4288 2.68872C11.4061 2.71722 11.388 2.74887 11.3744 2.78367C11.3563 3.13793 11.3503 3.49242 11.3563 3.84714C10.9695 3.84714 10.5828 3.84714 10.1961 3.84714C10.1861 3.44048 10.2042 3.03535 10.2504 2.63175C10.4491 1.88519 10.9144 1.48006 11.6464 1.41636ZM11.9364 3.23944C12.5166 3.23944 13.0967 3.23944 13.6768 3.23944C13.6768 3.442 13.6768 3.64457 13.6768 3.84714C13.0967 3.84714 12.5166 3.84714 11.9364 3.84714C11.9364 3.64457 11.9364 3.442 11.9364 3.23944ZM10.1598 4.45483C11.9244 4.45483 13.6889 4.45483 15.4534 4.45483C15.4386 4.83134 15.2513 5.04654 14.8914 5.10051C13.9284 4.86818 12.9555 4.79856 11.9727 4.89161C11.5542 4.95097 11.1372 5.02059 10.7218 5.10051C10.362 5.04654 10.1746 4.83134 10.1598 4.45483ZM9.72471 5.40435C9.78515 5.40435 9.84556 5.40435 9.906 5.40435C9.906 5.78416 9.906 6.16397 9.906 6.54378C9.47493 6.48989 9.2997 6.2367 9.38026 5.78416C9.45358 5.61249 9.56841 5.4859 9.72471 5.40435ZM15.7072 5.40435C16.0454 5.42942 16.2267 5.61933 16.2511 5.97407C16.2267 6.32881 16.0454 6.51871 15.7072 6.54378C15.7072 6.16397 15.7072 5.78416 15.7072 5.40435ZM12.4078 5.48032C12.8272 5.46949 13.2442 5.49482 13.6587 5.55628C13.6768 5.56892 13.6949 5.58161 13.7131 5.59426C13.6064 5.87516 13.6789 6.09671 13.9306 6.25892C14.3545 6.3402 14.5599 6.1566 14.547 5.7082C14.7412 5.74823 14.9346 5.74823 15.1271 5.7082C15.1366 6.24107 15.1185 6.77281 15.0727 7.3034C14.7758 8.53854 14.0204 9.20951 12.8066 9.31639C11.5929 9.20951 10.8375 8.53854 10.5405 7.3034C10.4826 6.7722 10.4766 6.24047 10.5224 5.7082C10.7023 5.74337 10.8835 5.74337 11.0662 5.7082C11.0533 6.1566 11.2588 6.3402 11.6826 6.25892C11.9295 6.10438 12.002 5.88284 11.9002 5.59426C12.0692 5.53831 12.2384 5.50033 12.4078 5.48032ZM11.6464 9.6962C12.4138 9.99955 13.1813 9.99955 13.9487 9.6962C13.9767 9.90145 13.9646 10.104 13.9125 10.3039C13.7369 10.881 13.5616 11.457 13.3867 12.032C12.9994 12.0636 12.6127 12.0573 12.2265 12.013C12.0477 11.4447 11.8724 10.875 11.7008 10.3039C11.6547 10.1043 11.6365 9.90179 11.6464 9.6962ZM11.1388 10.6837C11.3295 11.2514 11.5108 11.8275 11.6826 12.4118C11.6732 12.4597 11.6491 12.4977 11.6101 12.5258C11.3172 12.6823 11.0332 12.8532 10.7581 13.0385C10.7057 12.3926 10.6513 11.7469 10.5949 11.1015C10.607 11.0509 10.6191 11.0002 10.6312 10.9496C10.8127 10.8798 10.9819 10.7912 11.1388 10.6837ZM14.4382 10.6837C14.6348 10.7334 14.8221 10.8093 15.0002 10.9116C14.972 11.6211 14.9236 12.3301 14.8552 13.0385C14.58 12.8532 14.296 12.6823 14.0031 12.5258C13.9642 12.4977 13.94 12.4597 13.9306 12.4118C14.111 11.8385 14.2802 11.2625 14.4382 10.6837ZM15.6347 11.0635C16.1483 11.125 16.6559 11.2199 17.1575 11.3484C17.5758 11.5712 17.8477 11.9194 17.9733 12.3928C18.023 13.088 18.0411 13.7843 18.0277 14.4818C17.5924 14.4754 17.1574 14.4818 16.7224 14.5008C16.6862 14.5198 16.6499 14.5388 16.6137 14.5578C16.5775 14.2296 16.5654 13.9004 16.5774 13.5702C16.3841 13.5702 16.1907 13.5702 15.9973 13.5702C15.9973 13.8741 15.9973 14.1779 15.9973 14.4818C15.2238 14.4818 14.4503 14.4818 13.6768 14.4818C13.6768 14.6843 13.6768 14.8869 13.6768 15.0895C14.2329 15.0831 14.7888 15.0895 15.3447 15.1085C15.1513 15.1971 14.9579 15.2857 14.7645 15.3743C14.209 15.4274 13.6531 15.4717 13.0967 15.5073C13.0907 15.2917 13.0967 15.0765 13.1148 14.8616C13.3008 14.2698 13.5062 13.6875 13.7312 13.1145C14.1452 13.3662 14.5622 13.6131 14.9821 13.8551C15.2205 13.936 15.3716 13.8537 15.4353 13.6082C15.5038 12.7599 15.5702 11.9117 15.6347 11.0635ZM9.86974 11.1775C9.906 11.1775 9.94226 11.1775 9.97852 11.1775C10.049 11.9869 10.1154 12.7972 10.1779 13.6082C10.2416 13.8537 10.3927 13.936 10.6312 13.8551C11.0511 13.6131 11.468 13.3662 11.882 13.1145C12.107 13.6875 12.3124 14.2698 12.4984 14.8616C12.5165 15.0765 12.5226 15.2917 12.5166 15.5073C11.9601 15.4717 11.4042 15.4274 10.8487 15.3743C10.4528 15.1897 10.054 15.0125 9.6522 14.8426C9.61641 14.4216 9.6043 13.9975 9.61594 13.5702C9.42258 13.5702 9.22918 13.5702 9.03582 13.5702C9.04184 13.8997 9.03582 14.2288 9.01769 14.5578C8.979 14.5315 8.93669 14.5125 8.89079 14.5008C8.45587 14.4818 8.02078 14.4754 7.58551 14.4818C7.57213 13.8601 7.59026 13.2397 7.6399 12.6207C7.76575 12.0837 8.07394 11.7102 8.56447 11.5003C9.00674 11.4034 9.44183 11.2958 9.86974 11.1775ZM12.4078 12.6967C12.6672 12.6528 12.9331 12.6465 13.2054 12.6777C13.0761 13.0397 12.9432 13.4006 12.8066 13.7602C12.6728 13.4023 12.5398 13.0478 12.4078 12.6967ZM7.58551 15.0895C7.9483 15.0832 8.31088 15.0895 8.67324 15.1085C9.36837 15.4272 10.0693 15.731 10.7762 16.02C13.1939 16.2134 15.6111 16.4096 18.0277 16.6087C18.2398 18.0261 17.6718 18.6274 16.3236 18.4128C14.547 18.0204 12.7704 17.6279 10.9937 17.2354C10.4861 17.2228 9.97852 17.2101 9.47091 17.1974C9.28846 16.9936 9.0951 16.8037 8.89079 16.6277C8.45587 16.6087 8.02078 16.6024 7.58551 16.6087C7.58551 16.1023 7.58551 15.5959 7.58551 15.0895ZM16.94 15.0895C17.3026 15.0895 17.6651 15.0895 18.0277 15.0895C18.0277 15.3807 18.0277 15.6718 18.0277 15.963C17.1823 15.8905 16.3363 15.8209 15.4897 15.7542C15.9806 15.5411 16.4641 15.3196 16.94 15.0895ZM7.58551 17.2164C7.92412 17.2101 8.26255 17.2164 8.60072 17.2354C8.78317 17.4393 8.97653 17.6292 9.18085 17.8051C9.70053 17.8178 10.2202 17.8305 10.7399 17.8431C10.9091 17.8811 11.0783 17.9191 11.2475 17.957C10.5982 18.1207 9.94556 18.2727 9.28962 18.4128C8.93749 18.4441 8.58698 18.4315 8.23815 18.3748C7.74758 18.1644 7.53004 17.7783 7.58551 17.2164Z" fill="#1EAD5E"/>
<path opacity="0.948" fill-rule="evenodd" clip-rule="evenodd" d="M13.568 6.99951C13.6605 7.1882 13.733 7.39075 13.7855 7.60721C13.563 7.69395 13.3334 7.75093 13.0966 7.77812C12.7101 7.79711 12.3233 7.80345 11.9364 7.79711C11.9364 7.59456 11.9364 7.39197 11.9364 7.18942C12.3118 7.18752 12.6864 7.16853 13.0604 7.13244C13.2381 7.1043 13.4073 7.05998 13.568 6.99951Z" fill="#1EAD5E"/>
<path fill-rule="evenodd" clip-rule="evenodd" d="M4.39481 7.18945C4.58817 7.18945 4.78157 7.18945 4.97493 7.18945C4.97493 9.01254 4.97493 10.8356 4.97493 12.6587C4.78157 12.6587 4.58817 12.6587 4.39481 12.6587C4.39481 10.8356 4.39481 9.01254 4.39481 7.18945Z" fill="#1EAD5E"/>
<path fill-rule="evenodd" clip-rule="evenodd" d="M11.3563 14.178C11.5497 14.178 11.7431 14.178 11.9364 14.178C11.9364 14.3805 11.9364 14.5831 11.9364 14.7857C11.7431 14.7857 11.5497 14.7857 11.3563 14.7857C11.3563 14.5831 11.3563 14.3805 11.3563 14.178Z" fill="#1EAD5E"/>
</g>
<defs>
<clipPath id="clip0_18_177">
<rect width="18.5639" height="19.4462" fill="white" transform="translate(0.642151 0.219971)"/>
</clipPath>
</defs>
</svg>
