<svg width="24" height="24" viewBox="0 0 24 24" fill="none" xmlns="http://www.w3.org/2000/svg">
<g id="bxs:quote-alt-left">
<path id="Vector" d="M6.49999 10C6.27699 10 6.06299 10.034 5.84999 10.065C5.91899 9.83303 5.98999 9.59703 6.10399 9.38503C6.21799 9.07703 6.39599 8.81003 6.57299 8.54103C6.72099 8.25003 6.98199 8.05303 7.17399 7.80403C7.37499 7.56203 7.64899 7.40103 7.86599 7.20003C8.07899 6.99003 8.35799 6.88503 8.57999 6.73703C8.81199 6.60403 9.01399 6.45703 9.22999 6.38703L9.76899 6.16503L10.243 5.96803L9.75799 4.03003L9.16099 4.17403C8.96999 4.22203 8.73699 4.27803 8.47199 4.34503C8.20099 4.39503 7.91199 4.53203 7.58999 4.65703C7.27199 4.79903 6.90399 4.89503 6.56199 5.12303C6.21799 5.34103 5.82099 5.52303 5.47099 5.81503C5.13199 6.11603 4.72299 6.37703 4.42099 6.76003C4.09099 7.11803 3.76499 7.49403 3.51199 7.92203C3.21899 8.33003 3.01999 8.77803 2.80999 9.22103C2.61999 9.66403 2.46699 10.117 2.34199 10.557C2.10499 11.439 1.99899 12.277 1.95799 12.994C1.92399 13.712 1.94399 14.309 1.98599 14.741C2.00099 14.945 2.02899 15.143 2.04899 15.28L2.07399 15.448L2.09999 15.442C2.27785 16.2729 2.6873 17.0364 3.28096 17.6442C3.87462 18.2521 4.62823 18.6794 5.45463 18.8769C6.28103 19.0743 7.14644 19.0337 7.95075 18.7599C8.75506 18.486 9.4654 17.99 9.9996 17.3293C10.5338 16.6686 10.87 15.8701 10.9694 15.0263C11.0688 14.1825 10.9272 13.3278 10.5611 12.5611C10.195 11.7943 9.61933 11.1469 8.90064 10.6937C8.18196 10.2405 7.34965 9.99997 6.49999 10ZM17.5 10C17.277 10 17.063 10.034 16.85 10.065C16.919 9.83303 16.99 9.59703 17.104 9.38503C17.218 9.07703 17.396 8.81003 17.573 8.54103C17.721 8.25003 17.982 8.05303 18.174 7.80403C18.375 7.56203 18.649 7.40103 18.866 7.20003C19.079 6.99003 19.358 6.88503 19.58 6.73703C19.812 6.60403 20.014 6.45703 20.23 6.38703L20.769 6.16503L21.243 5.96803L20.758 4.03003L20.161 4.17403C19.97 4.22203 19.737 4.27803 19.472 4.34503C19.201 4.39503 18.912 4.53203 18.59 4.65703C18.273 4.80003 17.904 4.89503 17.562 5.12403C17.218 5.34203 16.821 5.52403 16.471 5.81603C16.132 6.11703 15.723 6.37803 15.421 6.76003C15.091 7.11803 14.765 7.49403 14.512 7.92203C14.219 8.33003 14.02 8.77803 13.81 9.22103C13.62 9.66403 13.467 10.117 13.342 10.557C13.105 11.439 12.999 12.277 12.958 12.994C12.924 13.712 12.944 14.309 12.986 14.741C13.001 14.945 13.029 15.143 13.049 15.28L13.074 15.448L13.1 15.442C13.2779 16.2729 13.6873 17.0364 14.281 17.6442C14.8746 18.2521 15.6282 18.6794 16.4546 18.8769C17.281 19.0743 18.1464 19.0337 18.9507 18.7599C19.7551 18.486 20.4654 17.99 20.9996 17.3293C21.5338 16.6686 21.87 15.8701 21.9694 15.0263C22.0688 14.1825 21.9272 13.3278 21.5611 12.5611C21.195 11.7943 20.6193 11.1469 19.9006 10.6937C19.182 10.2405 18.3496 9.99997 17.5 10Z" fill="#2C9E5A"/>
</g>
</svg>
