<svg width="64" height="58" viewBox="0 0 64 58" fill="none" xmlns="http://www.w3.org/2000/svg">
<path d="M16.517 46.767C13.5852 46.7557 11.0625 46.0341 8.94886 44.6023C6.84659 43.1705 5.22727 41.0966 4.09091 38.3807C2.96591 35.6648 2.40909 32.3977 2.42045 28.5795C2.42045 24.7727 2.98295 21.5284 4.10795 18.8466C5.24432 16.1648 6.86364 14.125 8.96591 12.7273C11.0795 11.3182 13.5966 10.6136 16.517 10.6136C19.4375 10.6136 21.9489 11.3182 24.0511 12.7273C26.1648 14.1364 27.7898 16.1818 28.9261 18.8636C30.0625 21.5341 30.625 24.7727 30.6136 28.5795C30.6136 32.4091 30.0455 35.6818 28.9091 38.3977C27.7841 41.1136 26.1705 43.1875 24.0682 44.6193C21.9659 46.0511 19.4489 46.767 16.517 46.767ZM16.517 40.6477C18.517 40.6477 20.1136 39.642 21.3068 37.6307C22.5 35.6193 23.0909 32.6023 23.0795 28.5795C23.0795 25.9318 22.8068 23.7273 22.2614 21.9659C21.7273 20.2045 20.9659 18.8807 19.9773 17.9943C19 17.108 17.8466 16.6648 16.517 16.6648C14.5284 16.6648 12.9375 17.6591 11.7443 19.6477C10.5511 21.6364 9.94886 24.6136 9.9375 28.5795C9.9375 31.2614 10.2045 33.5 10.7386 35.2955C11.2841 37.0795 12.0511 38.4205 13.0398 39.3182C14.0284 40.2045 15.1875 40.6477 16.517 40.6477ZM36.1264 46V40.6818L48.5526 29.1761C49.6094 28.1534 50.4957 27.233 51.2116 26.4148C51.9389 25.5966 52.4901 24.7955 52.8651 24.0114C53.2401 23.2159 53.4276 22.358 53.4276 21.4375C53.4276 20.4148 53.1946 19.5341 52.7287 18.7955C52.2628 18.0455 51.6264 17.4716 50.8196 17.0739C50.0128 16.6648 49.098 16.4602 48.0753 16.4602C47.0071 16.4602 46.0753 16.6761 45.2798 17.108C44.4844 17.5398 43.8707 18.1591 43.4389 18.9659C43.0071 19.7727 42.7912 20.733 42.7912 21.8466H35.7855C35.7855 19.5625 36.3026 17.5795 37.3366 15.8977C38.3707 14.2159 39.8196 12.9148 41.6832 11.9943C43.5469 11.0739 45.6946 10.6136 48.1264 10.6136C50.6264 10.6136 52.8026 11.0568 54.6548 11.9432C56.5185 12.8182 57.9673 14.0341 59.0014 15.5909C60.0355 17.1477 60.5526 18.9318 60.5526 20.9432C60.5526 22.2614 60.2912 23.5625 59.7685 24.8466C59.2571 26.1307 58.3423 27.5568 57.0241 29.125C55.706 30.6818 53.848 32.5511 51.4503 34.733L46.3537 39.7273V39.9659H61.0128V46H36.1264Z" fill="#1EAD5E"/>
</svg>
