<svg width="50" height="37" viewBox="0 0 50 37" fill="none" xmlns="http://www.w3.org/2000/svg">
<path d="M14.517 36.767C11.5852 36.7557 9.0625 36.0341 6.94886 34.6023C4.84659 33.1705 3.22727 31.0966 2.09091 28.3807C0.965909 25.6648 0.409091 22.3977 0.420455 18.5795C0.420455 14.7727 0.982955 11.5284 2.10795 8.84659C3.24432 6.16477 4.86364 4.125 6.96591 2.72727C9.07955 1.31818 11.5966 0.613635 14.517 0.613635C17.4375 0.613635 19.9489 1.31818 22.0511 2.72727C24.1648 4.13636 25.7898 6.18182 26.9261 8.86364C28.0625 11.5341 28.625 14.7727 28.6136 18.5795C28.6136 22.4091 28.0455 25.6818 26.9091 28.3977C25.7841 31.1136 24.1705 33.1875 22.0682 34.6193C19.9659 36.0511 17.4489 36.767 14.517 36.767ZM14.517 30.6477C16.517 30.6477 18.1136 29.642 19.3068 27.6307C20.5 25.6193 21.0909 22.6023 21.0795 18.5795C21.0795 15.9318 20.8068 13.7273 20.2614 11.9659C19.7273 10.2045 18.9659 8.88068 17.9773 7.99432C17 7.10795 15.8466 6.66477 14.517 6.66477C12.5284 6.66477 10.9375 7.65909 9.74432 9.64773C8.55114 11.6364 7.94886 14.6136 7.9375 18.5795C7.9375 21.2614 8.20455 23.5 8.73864 25.2955C9.28409 27.0795 10.0511 28.4205 11.0398 29.3182C12.0284 30.2045 13.1875 30.6477 14.517 30.6477ZM49.3139 1.09091V36H41.9332V8.09659H41.7287L33.7344 13.108V6.5625L42.3764 1.09091H49.3139Z" fill="#1EAD5E"/>
</svg>
