<svg width="344" height="297" viewBox="0 0 344 297" fill="none" xmlns="http://www.w3.org/2000/svg">
<path d="M54.8824 56.088V60H36.0424V56.088H43.2424V34.44C43.2424 33.672 43.2664 32.888 43.3144 32.088L37.7704 36.768C37.5304 36.96 37.2824 37.088 37.0264 37.152C36.7864 37.2 36.5544 37.2 36.3304 37.152C36.1224 37.104 35.9304 37.032 35.7544 36.936C35.5944 36.824 35.4664 36.704 35.3704 36.576L33.7624 34.32L44.1784 25.368H48.3784V56.088H54.8824ZM67.3181 38.208C68.1501 38.032 68.9421 37.904 69.6941 37.824C70.4621 37.744 71.1981 37.704 71.9021 37.704C73.7101 37.704 75.3021 37.976 76.6781 38.52C78.0701 39.048 79.2301 39.784 80.1581 40.728C81.1021 41.672 81.8061 42.784 82.2701 44.064C82.7501 45.328 82.9901 46.704 82.9901 48.192C82.9901 50.032 82.6701 51.704 82.0301 53.208C81.3901 54.712 80.5021 56 79.3661 57.072C78.2301 58.128 76.8861 58.944 75.3341 59.52C73.7981 60.096 72.1341 60.384 70.3421 60.384C69.2861 60.384 68.2781 60.28 67.3181 60.072C66.3741 59.864 65.4861 59.584 64.6541 59.232C63.8221 58.864 63.0541 58.448 62.3501 57.984C61.6461 57.504 61.0141 57.008 60.4541 56.496L62.0381 54.288C62.3741 53.808 62.8221 53.568 63.3821 53.568C63.7341 53.568 64.1181 53.696 64.5341 53.952C64.9501 54.208 65.4301 54.488 65.9741 54.792C66.5341 55.08 67.1901 55.352 67.9421 55.608C68.6941 55.864 69.5901 55.992 70.6301 55.992C71.7661 55.992 72.7821 55.808 73.6781 55.44C74.5741 55.072 75.3261 54.56 75.9341 53.904C76.5581 53.232 77.0301 52.432 77.3501 51.504C77.6701 50.576 77.8301 49.56 77.8301 48.456C77.8301 47.448 77.6781 46.544 77.3741 45.744C77.0861 44.944 76.6461 44.264 76.0541 43.704C75.4781 43.144 74.7501 42.72 73.8701 42.432C72.9901 42.128 71.9741 41.976 70.8221 41.976C69.9741 41.976 69.1021 42.048 68.2061 42.192C67.3261 42.336 66.4301 42.56 65.5181 42.864L62.3021 41.952L65.1341 25.44H81.8621V27.672C81.8621 28.408 81.6301 29.008 81.1661 29.472C80.7021 29.936 79.9261 30.168 78.8381 30.168H68.7101L67.3181 38.208ZM112.442 42.72C112.442 45.744 112.114 48.36 111.458 50.568C110.818 52.776 109.93 54.608 108.794 56.064C107.658 57.52 106.322 58.6 104.786 59.304C103.25 60.008 101.594 60.36 99.8179 60.36C98.0419 60.36 96.3859 60.008 94.8499 59.304C93.3139 58.6 91.9779 57.52 90.8419 56.064C89.7219 54.608 88.8419 52.776 88.2019 50.568C87.5619 48.36 87.2419 45.744 87.2419 42.72C87.2419 39.696 87.5619 37.08 88.2019 34.872C88.8419 32.648 89.7219 30.816 90.8419 29.376C91.9779 27.92 93.3139 26.84 94.8499 26.136C96.3859 25.416 98.0419 25.056 99.8179 25.056C101.594 25.056 103.25 25.416 104.786 26.136C106.322 26.84 107.658 27.92 108.794 29.376C109.93 30.816 110.818 32.648 111.458 34.872C112.114 37.08 112.442 39.696 112.442 42.72ZM107.114 42.72C107.114 40.16 106.906 38.032 106.49 36.336C106.09 34.624 105.554 33.256 104.882 32.232C104.21 31.208 103.434 30.48 102.554 30.048C101.674 29.616 100.762 29.4 99.8179 29.4C98.8579 29.4 97.9379 29.616 97.0579 30.048C96.1939 30.48 95.4259 31.208 94.7539 32.232C94.0819 33.256 93.5459 34.624 93.1459 36.336C92.7459 38.032 92.5459 40.16 92.5459 42.72C92.5459 45.28 92.7459 47.416 93.1459 49.128C93.5459 50.824 94.0819 52.184 94.7539 53.208C95.4259 54.232 96.1939 54.96 97.0579 55.392C97.9379 55.824 98.8579 56.04 99.8179 56.04C100.762 56.04 101.674 55.824 102.554 55.392C103.434 54.96 104.21 54.232 104.882 53.208C105.554 52.184 106.09 50.824 106.49 49.128C106.906 47.416 107.114 45.28 107.114 42.72Z" fill="#1EAD5E"/>
<path d="M21.384 91.04L16.128 104H14.229L8.973 91.04H10.656C10.842 91.04 10.992 91.088 11.106 91.184C11.22 91.274 11.307 91.388 11.367 91.526L14.706 99.977C14.886 100.451 15.051 100.997 15.201 101.615C15.267 101.309 15.336 101.018 15.408 100.742C15.486 100.466 15.57 100.211 15.66 99.977L18.99 91.526C19.038 91.406 19.122 91.295 19.242 91.193C19.362 91.091 19.512 91.04 19.692 91.04H21.384ZM27.1688 98.375C27.1688 98.051 27.1208 97.751 27.0248 97.475C26.9348 97.193 26.7998 96.95 26.6198 96.746C26.4398 96.536 26.2148 96.374 25.9448 96.26C25.6808 96.14 25.3748 96.08 25.0268 96.08C24.3248 96.08 23.7728 96.281 23.3708 96.683C22.9688 97.085 22.7138 97.649 22.6058 98.375H27.1688ZM22.5518 99.563C22.5758 100.085 22.6568 100.538 22.7948 100.922C22.9328 101.3 23.1158 101.615 23.3438 101.867C23.5778 102.119 23.8538 102.308 24.1718 102.434C24.4958 102.554 24.8558 102.614 25.2518 102.614C25.6298 102.614 25.9568 102.572 26.2328 102.488C26.5088 102.398 26.7488 102.302 26.9528 102.2C27.1568 102.092 27.3308 101.996 27.4748 101.912C27.6188 101.822 27.7508 101.777 27.8708 101.777C28.0268 101.777 28.1468 101.837 28.2308 101.957L28.7798 102.668C28.5518 102.938 28.2938 103.166 28.0058 103.352C27.7178 103.538 27.4118 103.691 27.0878 103.811C26.7638 103.925 26.4308 104.006 26.0888 104.054C25.7468 104.108 25.4138 104.135 25.0898 104.135C24.4538 104.135 23.8628 104.03 23.3168 103.82C22.7768 103.604 22.3058 103.289 21.9038 102.875C21.5078 102.461 21.1958 101.948 20.9678 101.336C20.7458 100.724 20.6348 100.019 20.6348 99.221C20.6348 98.585 20.7338 97.991 20.9318 97.439C21.1358 96.887 21.4238 96.407 21.7958 95.999C22.1738 95.591 22.6298 95.27 23.1638 95.036C23.7038 94.796 24.3128 94.676 24.9908 94.676C25.5548 94.676 26.0768 94.769 26.5568 94.955C27.0368 95.135 27.4508 95.402 27.7988 95.756C28.1468 96.11 28.4168 96.545 28.6088 97.061C28.8068 97.571 28.9058 98.153 28.9058 98.807C28.9058 99.107 28.8728 99.308 28.8068 99.41C28.7408 99.512 28.6208 99.563 28.4468 99.563H22.5518ZM32.6453 95.909C33.0233 95.537 33.4373 95.24 33.8873 95.018C34.3373 94.79 34.8623 94.676 35.4623 94.676C35.9663 94.676 36.4073 94.76 36.7853 94.928C37.1693 95.096 37.4903 95.333 37.7483 95.639C38.0123 95.945 38.2103 96.314 38.3423 96.746C38.4743 97.172 38.5403 97.643 38.5403 98.159V104H36.6143V98.159C36.6143 97.541 36.4703 97.061 36.1823 96.719C35.9003 96.377 35.4683 96.206 34.8863 96.206C34.4543 96.206 34.0523 96.305 33.6803 96.503C33.3143 96.701 32.9693 96.971 32.6453 97.313V104H30.7103V90.68H32.6453V95.909ZM42.8161 94.82V104H40.8811V94.82H42.8161ZM43.1401 92.048C43.1401 92.222 43.1041 92.387 43.0321 92.543C42.9661 92.699 42.8731 92.837 42.7531 92.957C42.6331 93.071 42.4921 93.164 42.3301 93.236C42.1741 93.302 42.0061 93.335 41.8261 93.335C41.6521 93.335 41.4871 93.302 41.3311 93.236C41.1811 93.164 41.0491 93.071 40.9351 92.957C40.8211 92.837 40.7281 92.699 40.6561 92.543C40.5901 92.387 40.5571 92.222 40.5571 92.048C40.5571 91.868 40.5901 91.7 40.6561 91.544C40.7281 91.388 40.8211 91.253 40.9351 91.139C41.0491 91.019 41.1811 90.926 41.3311 90.86C41.4871 90.788 41.6521 90.752 41.8261 90.752C42.0061 90.752 42.1741 90.788 42.3301 90.86C42.4921 90.926 42.6331 91.019 42.7531 91.139C42.8731 91.253 42.9661 91.388 43.0321 91.544C43.1041 91.7 43.1401 91.868 43.1401 92.048ZM51.7364 96.62C51.6764 96.698 51.6194 96.758 51.5654 96.8C51.5114 96.842 51.4334 96.863 51.3314 96.863C51.2294 96.863 51.1214 96.827 51.0074 96.755C50.8994 96.683 50.7674 96.605 50.6114 96.521C50.4614 96.431 50.2784 96.35 50.0624 96.278C49.8464 96.206 49.5764 96.17 49.2524 96.17C48.8324 96.17 48.4634 96.245 48.1454 96.395C47.8334 96.545 47.5694 96.761 47.3534 97.043C47.1434 97.319 46.9844 97.658 46.8764 98.06C46.7744 98.456 46.7234 98.903 46.7234 99.401C46.7234 99.917 46.7804 100.376 46.8944 100.778C47.0084 101.18 47.1704 101.519 47.3804 101.795C47.5964 102.071 47.8544 102.281 48.1544 102.425C48.4604 102.569 48.8024 102.641 49.1804 102.641C49.5524 102.641 49.8554 102.596 50.0894 102.506C50.3234 102.416 50.5184 102.317 50.6744 102.209C50.8304 102.101 50.9624 102.002 51.0704 101.912C51.1844 101.822 51.3044 101.777 51.4304 101.777C51.5864 101.777 51.7064 101.837 51.7904 101.957L52.3394 102.668C52.1174 102.938 51.8714 103.166 51.6014 103.352C51.3314 103.538 51.0464 103.691 50.7464 103.811C50.4464 103.925 50.1344 104.006 49.8104 104.054C49.4864 104.108 49.1594 104.135 48.8294 104.135C48.2594 104.135 47.7254 104.03 47.2274 103.82C46.7354 103.604 46.3034 103.295 45.9314 102.893C45.5654 102.485 45.2744 101.99 45.0584 101.408C44.8484 100.82 44.7434 100.151 44.7434 99.401C44.7434 98.723 44.8394 98.096 45.0314 97.52C45.2234 96.938 45.5024 96.437 45.8684 96.017C46.2404 95.597 46.6994 95.27 47.2454 95.036C47.7914 94.796 48.4214 94.676 49.1354 94.676C49.8014 94.676 50.3864 94.784 50.8904 95C51.4004 95.216 51.8534 95.522 52.2494 95.918L51.7364 96.62ZM55.8668 90.68V104H53.9318V90.68H55.8668ZM64.2762 98.375C64.2762 98.051 64.2282 97.751 64.1322 97.475C64.0422 97.193 63.9072 96.95 63.7272 96.746C63.5472 96.536 63.3222 96.374 63.0522 96.26C62.7882 96.14 62.4822 96.08 62.1342 96.08C61.4322 96.08 60.8802 96.281 60.4782 96.683C60.0762 97.085 59.8212 97.649 59.7132 98.375H64.2762ZM59.6592 99.563C59.6832 100.085 59.7642 100.538 59.9022 100.922C60.0402 101.3 60.2232 101.615 60.4512 101.867C60.6852 102.119 60.9612 102.308 61.2792 102.434C61.6032 102.554 61.9632 102.614 62.3592 102.614C62.7372 102.614 63.0642 102.572 63.3402 102.488C63.6162 102.398 63.8562 102.302 64.0602 102.2C64.2642 102.092 64.4382 101.996 64.5822 101.912C64.7262 101.822 64.8582 101.777 64.9782 101.777C65.1342 101.777 65.2542 101.837 65.3382 101.957L65.8872 102.668C65.6592 102.938 65.4012 103.166 65.1132 103.352C64.8252 103.538 64.5192 103.691 64.1952 103.811C63.8712 103.925 63.5382 104.006 63.1962 104.054C62.8542 104.108 62.5212 104.135 62.1972 104.135C61.5612 104.135 60.9702 104.03 60.4242 103.82C59.8842 103.604 59.4132 103.289 59.0112 102.875C58.6152 102.461 58.3032 101.948 58.0752 101.336C57.8532 100.724 57.7422 100.019 57.7422 99.221C57.7422 98.585 57.8412 97.991 58.0392 97.439C58.2432 96.887 58.5312 96.407 58.9032 95.999C59.2812 95.591 59.7372 95.27 60.2712 95.036C60.8112 94.796 61.4202 94.676 62.0982 94.676C62.6622 94.676 63.1842 94.769 63.6642 94.955C64.1442 95.135 64.5582 95.402 64.9062 95.756C65.2542 96.11 65.5242 96.545 65.7162 97.061C65.9142 97.571 66.0132 98.153 66.0132 98.807C66.0132 99.107 65.9802 99.308 65.9142 99.41C65.8482 99.512 65.7282 99.563 65.5542 99.563H59.6592ZM74.7751 104H72.6601V91.04H74.7751V104ZM79.154 96.035C79.352 95.831 79.556 95.648 79.766 95.486C79.982 95.318 80.21 95.174 80.45 95.054C80.69 94.934 80.945 94.841 81.215 94.775C81.485 94.709 81.779 94.676 82.097 94.676C82.601 94.676 83.042 94.76 83.42 94.928C83.804 95.096 84.125 95.333 84.383 95.639C84.647 95.945 84.845 96.314 84.977 96.746C85.109 97.172 85.175 97.643 85.175 98.159V104H83.249V98.159C83.249 97.541 83.105 97.061 82.817 96.719C82.535 96.377 82.103 96.206 81.521 96.206C81.089 96.206 80.687 96.305 80.315 96.503C79.949 96.701 79.604 96.971 79.28 97.313V104H77.345V94.82H78.515C78.779 94.82 78.947 94.943 79.019 95.189L79.154 96.035ZM99.0543 93.254C98.9883 93.362 98.9193 93.443 98.8473 93.497C98.7753 93.545 98.6853 93.569 98.5773 93.569C98.4633 93.569 98.3343 93.521 98.1903 93.425C98.0523 93.329 97.8783 93.224 97.6683 93.11C97.4643 92.99 97.2213 92.882 96.9393 92.786C96.6573 92.684 96.3213 92.633 95.9313 92.633C95.5713 92.633 95.2533 92.678 94.9773 92.768C94.7073 92.858 94.4793 92.984 94.2933 93.146C94.1073 93.308 93.9663 93.5 93.8703 93.722C93.7803 93.938 93.7353 94.175 93.7353 94.433C93.7353 94.763 93.8223 95.039 93.9963 95.261C94.1703 95.477 94.3983 95.663 94.6803 95.819C94.9683 95.975 95.2953 96.113 95.6613 96.233C96.0273 96.347 96.3993 96.47 96.7773 96.602C97.1613 96.734 97.5363 96.884 97.9023 97.052C98.2683 97.22 98.5923 97.433 98.8743 97.691C99.1623 97.949 99.3933 98.264 99.5673 98.636C99.7413 99.008 99.8283 99.461 99.8283 99.995C99.8283 100.571 99.7293 101.111 99.5313 101.615C99.3333 102.119 99.0453 102.56 98.6673 102.938C98.2953 103.31 97.8333 103.604 97.2813 103.82C96.7353 104.036 96.1113 104.144 95.4093 104.144C94.9953 104.144 94.5903 104.102 94.1943 104.018C93.8043 103.94 93.4293 103.829 93.0693 103.685C92.7153 103.535 92.3823 103.355 92.0703 103.145C91.7583 102.935 91.4793 102.701 91.2333 102.443L91.8453 101.435C91.8993 101.351 91.9683 101.285 92.0523 101.237C92.1363 101.189 92.2293 101.165 92.3313 101.165C92.4693 101.165 92.6223 101.231 92.7903 101.363C92.9583 101.489 93.1593 101.63 93.3933 101.786C93.6333 101.936 93.9213 102.077 94.2573 102.209C94.5933 102.335 94.9953 102.398 95.4633 102.398C96.2253 102.398 96.8133 102.212 97.2273 101.84C97.6473 101.468 97.8573 100.955 97.8573 100.301C97.8573 99.935 97.7703 99.638 97.5963 99.41C97.4223 99.176 97.1913 98.981 96.9033 98.825C96.6213 98.669 96.2973 98.537 95.9313 98.429C95.5653 98.321 95.1933 98.207 94.8153 98.087C94.4373 97.961 94.0653 97.817 93.6993 97.655C93.3333 97.487 93.0063 97.271 92.7183 97.007C92.4363 96.737 92.2083 96.407 92.0343 96.017C91.8603 95.621 91.7733 95.129 91.7733 94.541C91.7733 94.073 91.8633 93.62 92.0433 93.182C92.2293 92.744 92.4963 92.357 92.8443 92.021C93.1983 91.679 93.6333 91.406 94.1493 91.202C94.6653 90.998 95.2533 90.896 95.9133 90.896C96.6573 90.896 97.3383 91.013 97.9563 91.247C98.5803 91.481 99.1173 91.814 99.5673 92.246L99.0543 93.254ZM104.282 104.144C103.52 104.144 102.932 103.931 102.518 103.505C102.11 103.073 101.906 102.467 101.906 101.687V96.341H100.898C100.79 96.341 100.697 96.308 100.619 96.242C100.541 96.17 100.502 96.065 100.502 95.927V95.144L101.987 94.928L102.41 92.273C102.44 92.171 102.491 92.09 102.563 92.03C102.635 91.964 102.731 91.931 102.851 91.931H103.841V94.946H106.388V96.341H103.841V101.552C103.841 101.882 103.922 102.134 104.084 102.308C104.246 102.482 104.462 102.569 104.732 102.569C104.882 102.569 105.011 102.551 105.119 102.515C105.227 102.473 105.32 102.431 105.398 102.389C105.476 102.341 105.542 102.299 105.596 102.263C105.656 102.221 105.713 102.2 105.767 102.2C105.875 102.2 105.962 102.26 106.028 102.38L106.604 103.325C106.304 103.589 105.95 103.793 105.542 103.937C105.134 104.075 104.714 104.144 104.282 104.144ZM111.812 94.676C112.49 94.676 113.102 94.787 113.648 95.009C114.2 95.231 114.668 95.546 115.052 95.954C115.442 96.362 115.742 96.857 115.952 97.439C116.162 98.021 116.267 98.675 116.267 99.401C116.267 100.127 116.162 100.781 115.952 101.363C115.742 101.945 115.442 102.443 115.052 102.857C114.668 103.265 114.2 103.58 113.648 103.802C113.102 104.024 112.49 104.135 111.812 104.135C111.128 104.135 110.51 104.024 109.958 103.802C109.412 103.58 108.944 103.265 108.554 102.857C108.164 102.443 107.864 101.945 107.654 101.363C107.444 100.781 107.339 100.127 107.339 99.401C107.339 98.675 107.444 98.021 107.654 97.439C107.864 96.857 108.164 96.362 108.554 95.954C108.944 95.546 109.412 95.231 109.958 95.009C110.51 94.787 111.128 94.676 111.812 94.676ZM111.812 102.623C112.64 102.623 113.255 102.347 113.657 101.795C114.065 101.237 114.269 100.442 114.269 99.41C114.269 98.378 114.065 97.583 113.657 97.025C113.255 96.461 112.64 96.179 111.812 96.179C110.972 96.179 110.348 96.461 109.94 97.025C109.532 97.583 109.328 98.378 109.328 99.41C109.328 100.442 109.532 101.237 109.94 101.795C110.348 102.347 110.972 102.623 111.812 102.623ZM124.615 96.62C124.555 96.698 124.498 96.758 124.444 96.8C124.39 96.842 124.312 96.863 124.21 96.863C124.108 96.863 124 96.827 123.886 96.755C123.778 96.683 123.646 96.605 123.49 96.521C123.34 96.431 123.157 96.35 122.941 96.278C122.725 96.206 122.455 96.17 122.131 96.17C121.711 96.17 121.342 96.245 121.024 96.395C120.712 96.545 120.448 96.761 120.232 97.043C120.022 97.319 119.863 97.658 119.755 98.06C119.653 98.456 119.602 98.903 119.602 99.401C119.602 99.917 119.659 100.376 119.773 100.778C119.887 101.18 120.049 101.519 120.259 101.795C120.475 102.071 120.733 102.281 121.033 102.425C121.339 102.569 121.681 102.641 122.059 102.641C122.431 102.641 122.734 102.596 122.968 102.506C123.202 102.416 123.397 102.317 123.553 102.209C123.709 102.101 123.841 102.002 123.949 101.912C124.063 101.822 124.183 101.777 124.309 101.777C124.465 101.777 124.585 101.837 124.669 101.957L125.218 102.668C124.996 102.938 124.75 103.166 124.48 103.352C124.21 103.538 123.925 103.691 123.625 103.811C123.325 103.925 123.013 104.006 122.689 104.054C122.365 104.108 122.038 104.135 121.708 104.135C121.138 104.135 120.604 104.03 120.106 103.82C119.614 103.604 119.182 103.295 118.81 102.893C118.444 102.485 118.153 101.99 117.937 101.408C117.727 100.82 117.622 100.151 117.622 99.401C117.622 98.723 117.718 98.096 117.91 97.52C118.102 96.938 118.381 96.437 118.747 96.017C119.119 95.597 119.578 95.27 120.124 95.036C120.67 94.796 121.3 94.676 122.014 94.676C122.68 94.676 123.265 94.784 123.769 95C124.279 95.216 124.732 95.522 125.128 95.918L124.615 96.62ZM128.71 90.68V98.402H129.124C129.256 98.402 129.364 98.384 129.448 98.348C129.532 98.312 129.619 98.237 129.709 98.123L132.283 95.18C132.373 95.06 132.472 94.97 132.58 94.91C132.688 94.85 132.826 94.82 132.994 94.82H134.749L131.653 98.312C131.473 98.546 131.275 98.732 131.059 98.87C131.179 98.954 131.284 99.05 131.374 99.158C131.464 99.26 131.551 99.377 131.635 99.509L134.938 104H133.21C133.054 104 132.919 103.976 132.805 103.928C132.697 103.874 132.601 103.778 132.517 103.64L129.862 100.04C129.772 99.902 129.682 99.815 129.592 99.779C129.502 99.737 129.367 99.716 129.187 99.716H128.71V104H126.775V90.68H128.71Z" fill="#1EAD5E"/>
<rect y="75" width="144" height="2" rx="1" fill="#1EAD5E"/>
<rect y="79" width="72" height="2" rx="1" fill="#1EAD5E"/>
<path d="M261.46 47.232V34.608C261.46 33.6 261.532 32.496 261.676 31.296L250.06 47.232H261.46ZM270.724 47.232V50.208C270.724 50.496 270.628 50.744 270.436 50.952C270.26 51.16 269.988 51.264 269.62 51.264H265.948V60H261.46V51.264H246.508C246.14 51.264 245.82 51.16 245.548 50.952C245.292 50.728 245.124 50.456 245.044 50.136L244.516 47.496L261.1 25.416H265.948V47.232H270.724ZM298.52 42.72C298.52 45.744 298.192 48.36 297.536 50.568C296.896 52.776 296.008 54.608 294.872 56.064C293.736 57.52 292.4 58.6 290.864 59.304C289.328 60.008 287.672 60.36 285.896 60.36C284.12 60.36 282.464 60.008 280.928 59.304C279.392 58.6 278.056 57.52 276.92 56.064C275.8 54.608 274.92 52.776 274.28 50.568C273.64 48.36 273.32 45.744 273.32 42.72C273.32 39.696 273.64 37.08 274.28 34.872C274.92 32.648 275.8 30.816 276.92 29.376C278.056 27.92 279.392 26.84 280.928 26.136C282.464 25.416 284.12 25.056 285.896 25.056C287.672 25.056 289.328 25.416 290.864 26.136C292.4 26.84 293.736 27.92 294.872 29.376C296.008 30.816 296.896 32.648 297.536 34.872C298.192 37.08 298.52 39.696 298.52 42.72ZM293.192 42.72C293.192 40.16 292.984 38.032 292.568 36.336C292.168 34.624 291.632 33.256 290.96 32.232C290.288 31.208 289.512 30.48 288.632 30.048C287.752 29.616 286.84 29.4 285.896 29.4C284.936 29.4 284.016 29.616 283.136 30.048C282.272 30.48 281.504 31.208 280.832 32.232C280.16 33.256 279.624 34.624 279.224 36.336C278.824 38.032 278.624 40.16 278.624 42.72C278.624 45.28 278.824 47.416 279.224 49.128C279.624 50.824 280.16 52.184 280.832 53.208C281.504 54.232 282.272 54.96 283.136 55.392C284.016 55.824 284.936 56.04 285.896 56.04C286.84 56.04 287.752 55.824 288.632 55.392C289.512 54.96 290.288 54.232 290.96 53.208C291.632 52.184 292.168 50.824 292.568 49.128C292.984 47.416 293.192 45.28 293.192 42.72Z" fill="#1EAD5E"/>
<path d="M246.953 94.254C246.887 94.362 246.818 94.443 246.746 94.497C246.674 94.545 246.584 94.569 246.476 94.569C246.362 94.569 246.233 94.521 246.089 94.425C245.951 94.329 245.777 94.224 245.567 94.11C245.363 93.99 245.12 93.882 244.838 93.786C244.556 93.684 244.22 93.633 243.83 93.633C243.47 93.633 243.152 93.678 242.876 93.768C242.606 93.858 242.378 93.984 242.192 94.146C242.006 94.308 241.865 94.5 241.769 94.722C241.679 94.938 241.634 95.175 241.634 95.433C241.634 95.763 241.721 96.039 241.895 96.261C242.069 96.477 242.297 96.663 242.579 96.819C242.867 96.975 243.194 97.113 243.56 97.233C243.926 97.347 244.298 97.47 244.676 97.602C245.06 97.734 245.435 97.884 245.801 98.052C246.167 98.22 246.491 98.433 246.773 98.691C247.061 98.949 247.292 99.264 247.466 99.636C247.64 100.008 247.727 100.461 247.727 100.995C247.727 101.571 247.628 102.111 247.43 102.615C247.232 103.119 246.944 103.56 246.566 103.938C246.194 104.31 245.732 104.604 245.18 104.82C244.634 105.036 244.01 105.144 243.308 105.144C242.894 105.144 242.489 105.102 242.093 105.018C241.703 104.94 241.328 104.829 240.968 104.685C240.614 104.535 240.281 104.355 239.969 104.145C239.657 103.935 239.378 103.701 239.132 103.443L239.744 102.435C239.798 102.351 239.867 102.285 239.951 102.237C240.035 102.189 240.128 102.165 240.23 102.165C240.368 102.165 240.521 102.231 240.689 102.363C240.857 102.489 241.058 102.63 241.292 102.786C241.532 102.936 241.82 103.077 242.156 103.209C242.492 103.335 242.894 103.398 243.362 103.398C244.124 103.398 244.712 103.212 245.126 102.84C245.546 102.468 245.756 101.955 245.756 101.301C245.756 100.935 245.669 100.638 245.495 100.41C245.321 100.176 245.09 99.981 244.802 99.825C244.52 99.669 244.196 99.537 243.83 99.429C243.464 99.321 243.092 99.207 242.714 99.087C242.336 98.961 241.964 98.817 241.598 98.655C241.232 98.487 240.905 98.271 240.617 98.007C240.335 97.737 240.107 97.407 239.933 97.017C239.759 96.621 239.672 96.129 239.672 95.541C239.672 95.073 239.762 94.62 239.942 94.182C240.128 93.744 240.395 93.357 240.743 93.021C241.097 92.679 241.532 92.406 242.048 92.202C242.564 91.998 243.152 91.896 243.812 91.896C244.556 91.896 245.237 92.013 245.855 92.247C246.479 92.481 247.016 92.814 247.466 93.246L246.953 94.254ZM253.576 95.676C254.254 95.676 254.866 95.787 255.412 96.009C255.964 96.231 256.432 96.546 256.816 96.954C257.206 97.362 257.506 97.857 257.716 98.439C257.926 99.021 258.031 99.675 258.031 100.401C258.031 101.127 257.926 101.781 257.716 102.363C257.506 102.945 257.206 103.443 256.816 103.857C256.432 104.265 255.964 104.58 255.412 104.802C254.866 105.024 254.254 105.135 253.576 105.135C252.892 105.135 252.274 105.024 251.722 104.802C251.176 104.58 250.708 104.265 250.318 103.857C249.928 103.443 249.628 102.945 249.418 102.363C249.208 101.781 249.103 101.127 249.103 100.401C249.103 99.675 249.208 99.021 249.418 98.439C249.628 97.857 249.928 97.362 250.318 96.954C250.708 96.546 251.176 96.231 251.722 96.009C252.274 95.787 252.892 95.676 253.576 95.676ZM253.576 103.623C254.404 103.623 255.019 103.347 255.421 102.795C255.829 102.237 256.033 101.442 256.033 100.41C256.033 99.378 255.829 98.583 255.421 98.025C255.019 97.461 254.404 97.179 253.576 97.179C252.736 97.179 252.112 97.461 251.704 98.025C251.296 98.583 251.092 99.378 251.092 100.41C251.092 101.442 251.296 102.237 251.704 102.795C252.112 103.347 252.736 103.623 253.576 103.623ZM261.861 91.68V105H259.926V91.68H261.861ZM270.108 98.079C269.838 97.731 269.541 97.488 269.217 97.35C268.893 97.212 268.542 97.143 268.164 97.143C267.408 97.143 266.817 97.422 266.391 97.98C265.965 98.532 265.752 99.351 265.752 100.437C265.752 101.001 265.8 101.484 265.896 101.886C265.992 102.282 266.13 102.606 266.31 102.858C266.49 103.11 266.709 103.293 266.967 103.407C267.225 103.521 267.516 103.578 267.84 103.578C268.332 103.578 268.755 103.473 269.109 103.263C269.469 103.047 269.802 102.744 270.108 102.354V98.079ZM272.043 91.68V105H270.873C270.615 105 270.45 104.877 270.378 104.631L270.207 103.632C269.823 104.082 269.385 104.445 268.893 104.721C268.407 104.997 267.84 105.135 267.192 105.135C266.676 105.135 266.208 105.033 265.788 104.829C265.368 104.619 265.008 104.316 264.708 103.92C264.408 103.524 264.174 103.035 264.006 102.453C263.844 101.865 263.763 101.193 263.763 100.437C263.763 99.753 263.853 99.12 264.033 98.538C264.219 97.956 264.483 97.452 264.825 97.026C265.167 96.594 265.581 96.258 266.067 96.018C266.559 95.772 267.108 95.649 267.714 95.649C268.254 95.649 268.713 95.736 269.091 95.91C269.469 96.078 269.808 96.315 270.108 96.621V91.68H272.043ZM288.252 102.111C288.366 102.111 288.465 102.156 288.549 102.246L289.386 103.155C288.858 103.791 288.21 104.283 287.442 104.631C286.674 104.973 285.756 105.144 284.688 105.144C283.74 105.144 282.882 104.982 282.114 104.658C281.352 104.328 280.701 103.872 280.161 103.29C279.621 102.702 279.204 102.003 278.91 101.193C278.622 100.383 278.478 99.492 278.478 98.52C278.478 97.548 278.631 96.657 278.937 95.847C279.249 95.031 279.684 94.332 280.242 93.75C280.806 93.162 281.478 92.706 282.258 92.382C283.044 92.058 283.908 91.896 284.85 91.896C285.786 91.896 286.611 92.049 287.325 92.355C288.045 92.655 288.669 93.057 289.197 93.561L288.504 94.542C288.456 94.608 288.399 94.665 288.333 94.713C288.267 94.761 288.177 94.785 288.063 94.785C287.943 94.785 287.805 94.731 287.649 94.623C287.499 94.509 287.304 94.386 287.064 94.254C286.83 94.116 286.533 93.993 286.173 93.885C285.819 93.771 285.375 93.714 284.841 93.714C284.223 93.714 283.656 93.822 283.14 94.038C282.624 94.254 282.18 94.569 281.808 94.983C281.436 95.397 281.145 95.901 280.935 96.495C280.731 97.089 280.629 97.764 280.629 98.52C280.629 99.282 280.737 99.963 280.953 100.563C281.169 101.157 281.466 101.661 281.844 102.075C282.222 102.483 282.666 102.795 283.176 103.011C283.686 103.227 284.235 103.335 284.823 103.335C285.183 103.335 285.504 103.317 285.786 103.281C286.074 103.239 286.338 103.176 286.578 103.092C286.818 103.002 287.043 102.891 287.253 102.759C287.469 102.627 287.682 102.465 287.892 102.273C288.012 102.165 288.132 102.111 288.252 102.111ZM295.75 100.986C295.06 101.01 294.478 101.067 294.004 101.157C293.53 101.241 293.146 101.352 292.852 101.49C292.558 101.622 292.345 101.781 292.213 101.967C292.087 102.153 292.024 102.357 292.024 102.579C292.024 102.795 292.057 102.981 292.123 103.137C292.195 103.287 292.291 103.413 292.411 103.515C292.537 103.611 292.681 103.683 292.843 103.731C293.011 103.773 293.194 103.794 293.392 103.794C293.896 103.794 294.328 103.701 294.688 103.515C295.054 103.323 295.408 103.047 295.75 102.687V100.986ZM290.62 97.098C291.658 96.132 292.894 95.649 294.328 95.649C294.856 95.649 295.324 95.736 295.732 95.91C296.146 96.078 296.491 96.318 296.767 96.63C297.049 96.942 297.262 97.314 297.406 97.746C297.556 98.172 297.631 98.646 297.631 99.168V105H296.767C296.581 105 296.44 104.973 296.344 104.919C296.248 104.859 296.167 104.742 296.101 104.568L295.912 103.821C295.678 104.031 295.447 104.22 295.219 104.388C294.991 104.55 294.754 104.688 294.508 104.802C294.268 104.916 294.007 105 293.725 105.054C293.449 105.114 293.143 105.144 292.807 105.144C292.435 105.144 292.087 105.093 291.763 104.991C291.445 104.889 291.169 104.736 290.935 104.532C290.701 104.322 290.515 104.064 290.377 103.758C290.245 103.452 290.179 103.092 290.179 102.678C290.179 102.324 290.272 101.979 290.458 101.643C290.65 101.307 290.962 101.007 291.394 100.743C291.832 100.473 292.405 100.251 293.113 100.077C293.827 99.903 294.706 99.804 295.75 99.78V99.168C295.75 98.508 295.609 98.016 295.327 97.692C295.045 97.368 294.631 97.206 294.085 97.206C293.713 97.206 293.401 97.254 293.149 97.35C292.897 97.44 292.678 97.539 292.492 97.647C292.306 97.755 292.141 97.857 291.997 97.953C291.853 98.043 291.7 98.088 291.538 98.088C291.406 98.088 291.292 98.055 291.196 97.989C291.106 97.917 291.031 97.83 290.971 97.728L290.62 97.098ZM301.725 97.521C302.013 96.939 302.361 96.483 302.769 96.153C303.177 95.817 303.666 95.649 304.236 95.649C304.434 95.649 304.62 95.673 304.794 95.721C304.968 95.763 305.124 95.829 305.262 95.919L305.127 97.377C305.103 97.479 305.064 97.551 305.01 97.593C304.962 97.629 304.896 97.647 304.812 97.647C304.722 97.647 304.593 97.632 304.425 97.602C304.257 97.566 304.08 97.548 303.894 97.548C303.624 97.548 303.384 97.587 303.174 97.665C302.97 97.743 302.784 97.857 302.616 98.007C302.454 98.157 302.31 98.34 302.184 98.556C302.058 98.772 301.941 99.018 301.833 99.294V105H299.898V95.82H301.023C301.227 95.82 301.368 95.859 301.446 95.937C301.524 96.009 301.578 96.138 301.608 96.324L301.725 97.521Z" fill="#1EAD5E"/>
<rect x="200" y="75" width="144" height="2" rx="1" fill="#1EAD5E"/>
<rect x="200" y="79" width="72" height="2" rx="1" fill="#1EAD5E"/>
<path d="M46.9883 211.944C47.2283 210.312 47.6763 208.88 48.3323 207.648C49.0043 206.416 49.8443 205.392 50.8523 204.576C51.8603 203.744 53.0123 203.12 54.3083 202.704C55.6202 202.272 57.0363 202.056 58.5563 202.056C60.0923 202.056 61.4843 202.28 62.7323 202.728C63.9963 203.16 65.0763 203.768 65.9723 204.552C66.8843 205.336 67.5803 206.272 68.0603 207.36C68.5563 208.448 68.8043 209.64 68.8043 210.936C68.8043 212.04 68.6683 213.016 68.3962 213.864C68.1403 214.696 67.7643 215.432 67.2683 216.072C66.7883 216.712 66.1963 217.248 65.4923 217.68C64.7883 218.112 63.9963 218.472 63.1163 218.76C65.2603 219.384 66.8683 220.384 67.9403 221.76C69.0123 223.12 69.5483 224.832 69.5483 226.896C69.5483 228.56 69.2363 230.04 68.6123 231.336C67.9883 232.632 67.1403 233.728 66.0683 234.624C65.0123 235.52 63.7723 236.208 62.3483 236.688C60.9403 237.152 59.4443 237.384 57.8603 237.384C56.0843 237.384 54.5483 237.176 53.2523 236.76C51.9563 236.328 50.8363 235.72 49.8923 234.936C48.9643 234.136 48.1883 233.176 47.5643 232.056C46.9403 230.936 46.4123 229.68 45.9803 228.288L48.2123 227.352C48.8043 227.096 49.3643 227.024 49.8923 227.136C50.4363 227.248 50.8283 227.544 51.0683 228.024C51.3243 228.536 51.6123 229.088 51.9323 229.68C52.2523 230.256 52.6603 230.792 53.1563 231.288C53.6683 231.768 54.2923 232.176 55.0283 232.512C55.7803 232.832 56.7003 232.992 57.7883 232.992C58.8923 232.992 59.8523 232.816 60.6683 232.464C61.5003 232.096 62.1883 231.632 62.7323 231.072C63.2923 230.496 63.7083 229.856 63.9803 229.152C64.2523 228.448 64.3883 227.752 64.3883 227.064C64.3883 226.2 64.2843 225.408 64.0763 224.688C63.8683 223.952 63.4603 223.328 62.8523 222.816C62.2603 222.304 61.4123 221.904 60.3083 221.616C59.2203 221.312 57.7883 221.16 56.0123 221.16V217.44C57.4683 217.424 58.6923 217.28 59.6843 217.008C60.6923 216.72 61.4923 216.336 62.0843 215.856C62.6923 215.36 63.1243 214.768 63.3803 214.08C63.6523 213.392 63.7883 212.64 63.7883 211.824C63.7883 210.944 63.6523 210.168 63.3803 209.496C63.1083 208.824 62.7243 208.264 62.2283 207.816C61.7483 207.352 61.1723 207.008 60.5003 206.784C59.8283 206.56 59.0843 206.448 58.2682 206.448C57.4843 206.448 56.7563 206.56 56.0843 206.784C55.4283 207.008 54.8363 207.32 54.3083 207.72C53.7963 208.12 53.3643 208.6 53.0123 209.16C52.6603 209.704 52.4043 210.304 52.2443 210.96C52.0203 211.616 51.7163 212.056 51.3323 212.28C50.9643 212.504 50.4203 212.552 49.7003 212.424L46.9883 211.944ZM85.92 233.304C86.96 233.304 87.888 233.16 88.704 232.872C89.52 232.568 90.2 232.152 90.744 231.624C91.304 231.08 91.728 230.44 92.016 229.704C92.304 228.968 92.448 228.168 92.448 227.304C92.448 226.248 92.28 225.336 91.944 224.568C91.624 223.8 91.168 223.168 90.576 222.672C90 222.16 89.312 221.784 88.512 221.544C87.712 221.288 86.848 221.16 85.92 221.16C84.992 221.16 84.128 221.288 83.328 221.544C82.528 221.784 81.832 222.16 81.24 222.672C80.664 223.168 80.208 223.8 79.872 224.568C79.552 225.336 79.392 226.248 79.392 227.304C79.392 228.168 79.536 228.968 79.824 229.704C80.112 230.44 80.528 231.08 81.072 231.624C81.632 232.152 82.32 232.568 83.136 232.872C83.952 233.16 84.88 233.304 85.92 233.304ZM85.92 206.016C84.976 206.016 84.144 206.16 83.424 206.448C82.72 206.736 82.136 207.12 81.672 207.6C81.208 208.08 80.856 208.648 80.616 209.304C80.392 209.944 80.28 210.624 80.28 211.344C80.28 212.064 80.376 212.768 80.568 213.456C80.776 214.144 81.096 214.76 81.528 215.304C81.976 215.832 82.56 216.256 83.28 216.576C84 216.896 84.88 217.056 85.92 217.056C86.96 217.056 87.84 216.896 88.56 216.576C89.28 216.256 89.856 215.832 90.288 215.304C90.736 214.76 91.056 214.144 91.248 213.456C91.456 212.768 91.56 212.064 91.56 211.344C91.56 210.624 91.44 209.944 91.2 209.304C90.976 208.648 90.624 208.08 90.144 207.6C89.68 207.12 89.096 206.736 88.392 206.448C87.688 206.16 86.864 206.016 85.92 206.016ZM91.368 218.976C93.496 219.632 95.088 220.672 96.144 222.096C97.216 223.52 97.752 225.288 97.752 227.4C97.752 228.92 97.464 230.296 96.888 231.528C96.312 232.76 95.504 233.808 94.464 234.672C93.424 235.536 92.176 236.208 90.72 236.688C89.28 237.152 87.68 237.384 85.92 237.384C84.16 237.384 82.552 237.152 81.096 236.688C79.656 236.208 78.416 235.536 77.376 234.672C76.336 233.808 75.528 232.76 74.952 231.528C74.376 230.296 74.088 228.92 74.088 227.4C74.088 225.288 74.616 223.52 75.672 222.096C76.744 220.672 78.344 219.632 80.472 218.976C78.744 218.288 77.44 217.288 76.56 215.976C75.696 214.664 75.264 213.088 75.264 211.248C75.264 209.952 75.52 208.744 76.032 207.624C76.544 206.504 77.264 205.536 78.192 204.72C79.136 203.888 80.264 203.24 81.576 202.776C82.888 202.296 84.336 202.056 85.92 202.056C87.504 202.056 88.944 202.296 90.24 202.776C91.552 203.24 92.672 203.888 93.6 204.72C94.544 205.536 95.272 206.504 95.784 207.624C96.312 208.744 96.576 209.952 96.576 211.248C96.576 213.088 96.136 214.664 95.256 215.976C94.392 217.288 93.096 218.288 91.368 218.976Z" fill="#1EAD5E"/>
<path d="M17.3471 268.04V281H15.2411V275.231H8.73408V281H6.61908V268.04H8.73408V273.71H15.2411V268.04H17.3471ZM24.7344 276.986C24.0444 277.01 23.4624 277.067 22.9884 277.157C22.5144 277.241 22.1304 277.352 21.8364 277.49C21.5424 277.622 21.3294 277.781 21.1974 277.967C21.0714 278.153 21.0084 278.357 21.0084 278.579C21.0084 278.795 21.0414 278.981 21.1074 279.137C21.1794 279.287 21.2754 279.413 21.3954 279.515C21.5214 279.611 21.6654 279.683 21.8274 279.731C21.9954 279.773 22.1784 279.794 22.3764 279.794C22.8804 279.794 23.3124 279.701 23.6724 279.515C24.0384 279.323 24.3924 279.047 24.7344 278.687V276.986ZM19.6044 273.098C20.6424 272.132 21.8784 271.649 23.3124 271.649C23.8404 271.649 24.3084 271.736 24.7164 271.91C25.1304 272.078 25.4754 272.318 25.7514 272.63C26.0334 272.942 26.2464 273.314 26.3904 273.746C26.5404 274.172 26.6154 274.646 26.6154 275.168V281H25.7514C25.5654 281 25.4244 280.973 25.3284 280.919C25.2324 280.859 25.1514 280.742 25.0854 280.568L24.8964 279.821C24.6624 280.031 24.4314 280.22 24.2034 280.388C23.9754 280.55 23.7384 280.688 23.4924 280.802C23.2524 280.916 22.9914 281 22.7094 281.054C22.4334 281.114 22.1274 281.144 21.7914 281.144C21.4194 281.144 21.0714 281.093 20.7474 280.991C20.4294 280.889 20.1534 280.736 19.9194 280.532C19.6854 280.322 19.4994 280.064 19.3614 279.758C19.2294 279.452 19.1634 279.092 19.1634 278.678C19.1634 278.324 19.2564 277.979 19.4424 277.643C19.6344 277.307 19.9464 277.007 20.3784 276.743C20.8164 276.473 21.3894 276.251 22.0974 276.077C22.8114 275.903 23.6904 275.804 24.7344 275.78V275.168C24.7344 274.508 24.5934 274.016 24.3114 273.692C24.0294 273.368 23.6154 273.206 23.0694 273.206C22.6974 273.206 22.3854 273.254 22.1334 273.35C21.8814 273.44 21.6624 273.539 21.4764 273.647C21.2904 273.755 21.1254 273.857 20.9814 273.953C20.8374 274.043 20.6844 274.088 20.5224 274.088C20.3904 274.088 20.2764 274.055 20.1804 273.989C20.0904 273.917 20.0154 273.83 19.9554 273.728L19.6044 273.098ZM30.8171 278.696C31.0871 279.044 31.3811 279.29 31.6991 279.434C32.0231 279.572 32.3801 279.641 32.7701 279.641C33.5261 279.641 34.1141 279.365 34.5341 278.813C34.9601 278.261 35.1731 277.439 35.1731 276.347C35.1731 275.783 35.1251 275.303 35.0291 274.907C34.9331 274.505 34.7951 274.178 34.6151 273.926C34.4351 273.674 34.2161 273.491 33.9581 273.377C33.7001 273.263 33.4091 273.206 33.0851 273.206C32.5931 273.206 32.1671 273.314 31.8071 273.53C31.4531 273.74 31.1231 274.043 30.8171 274.439V278.696ZM30.7181 273.152C31.1021 272.702 31.5371 272.339 32.0231 272.063C32.5151 271.787 33.0851 271.649 33.7331 271.649C34.2491 271.649 34.7171 271.754 35.1371 271.964C35.5571 272.168 35.9171 272.468 36.2171 272.864C36.5171 273.26 36.7481 273.752 36.9101 274.34C37.0781 274.922 37.1621 275.591 37.1621 276.347C37.1621 277.025 37.0691 277.658 36.8831 278.246C36.7031 278.828 36.4421 279.335 36.1001 279.767C35.7581 280.193 35.3441 280.529 34.8581 280.775C34.3721 281.015 33.8231 281.135 33.2111 281.135C32.6711 281.135 32.2121 281.048 31.8341 280.874C31.4621 280.7 31.1231 280.46 30.8171 280.154V284.051H28.8821V271.82H30.0521C30.3161 271.82 30.4841 271.943 30.5561 272.189L30.7181 273.152ZM40.9773 278.696C41.2473 279.044 41.5413 279.29 41.8593 279.434C42.1833 279.572 42.5403 279.641 42.9303 279.641C43.6863 279.641 44.2743 279.365 44.6943 278.813C45.1203 278.261 45.3333 277.439 45.3333 276.347C45.3333 275.783 45.2853 275.303 45.1893 274.907C45.0933 274.505 44.9553 274.178 44.7753 273.926C44.5953 273.674 44.3763 273.491 44.1183 273.377C43.8603 273.263 43.5693 273.206 43.2453 273.206C42.7533 273.206 42.3273 273.314 41.9673 273.53C41.6133 273.74 41.2833 274.043 40.9773 274.439V278.696ZM40.8783 273.152C41.2623 272.702 41.6973 272.339 42.1833 272.063C42.6753 271.787 43.2453 271.649 43.8933 271.649C44.4093 271.649 44.8773 271.754 45.2973 271.964C45.7173 272.168 46.0773 272.468 46.3773 272.864C46.6773 273.26 46.9083 273.752 47.0703 274.34C47.2383 274.922 47.3223 275.591 47.3223 276.347C47.3223 277.025 47.2293 277.658 47.0433 278.246C46.8633 278.828 46.6023 279.335 46.2603 279.767C45.9183 280.193 45.5043 280.529 45.0183 280.775C44.5323 281.015 43.9833 281.135 43.3713 281.135C42.8313 281.135 42.3723 281.048 41.9943 280.874C41.6223 280.7 41.2833 280.46 40.9773 280.154V284.051H39.0423V271.82H40.2123C40.4763 271.82 40.6443 271.943 40.7163 272.189L40.8783 273.152ZM57.1013 271.82L52.0433 283.61C51.9773 283.748 51.8963 283.856 51.8003 283.934C51.7103 284.012 51.5693 284.051 51.3773 284.051H49.9463L51.6383 280.379L47.8943 271.82H49.5773C49.7393 271.82 49.8623 271.859 49.9463 271.937C50.0363 272.009 50.1023 272.096 50.1443 272.198L52.3313 277.409C52.3853 277.559 52.4333 277.709 52.4753 277.859C52.5233 278.003 52.5683 278.153 52.6103 278.309C52.6583 278.153 52.7063 278 52.7543 277.85C52.8023 277.7 52.8563 277.55 52.9163 277.4L55.0133 272.198C55.0553 272.09 55.1243 272 55.2203 271.928C55.3223 271.856 55.4333 271.82 55.5533 271.82H57.1013ZM71.7636 278.111C71.8776 278.111 71.9766 278.156 72.0606 278.246L72.8976 279.155C72.3696 279.791 71.7216 280.283 70.9536 280.631C70.1856 280.973 69.2676 281.144 68.1996 281.144C67.2516 281.144 66.3936 280.982 65.6256 280.658C64.8636 280.328 64.2126 279.872 63.6726 279.29C63.1326 278.702 62.7156 278.003 62.4216 277.193C62.1336 276.383 61.9896 275.492 61.9896 274.52C61.9896 273.548 62.1426 272.657 62.4486 271.847C62.7606 271.031 63.1956 270.332 63.7536 269.75C64.3176 269.162 64.9896 268.706 65.7696 268.382C66.5556 268.058 67.4196 267.896 68.3616 267.896C69.2976 267.896 70.1226 268.049 70.8366 268.355C71.5566 268.655 72.1806 269.057 72.7086 269.561L72.0156 270.542C71.9676 270.608 71.9106 270.665 71.8446 270.713C71.7786 270.761 71.6886 270.785 71.5746 270.785C71.4546 270.785 71.3166 270.731 71.1606 270.623C71.0106 270.509 70.8156 270.386 70.5756 270.254C70.3416 270.116 70.0446 269.993 69.6846 269.885C69.3306 269.771 68.8866 269.714 68.3526 269.714C67.7346 269.714 67.1676 269.822 66.6516 270.038C66.1356 270.254 65.6916 270.569 65.3196 270.983C64.9476 271.397 64.6566 271.901 64.4466 272.495C64.2426 273.089 64.1406 273.764 64.1406 274.52C64.1406 275.282 64.2486 275.963 64.4646 276.563C64.6806 277.157 64.9776 277.661 65.3556 278.075C65.7336 278.483 66.1776 278.795 66.6876 279.011C67.1976 279.227 67.7466 279.335 68.3346 279.335C68.6946 279.335 69.0156 279.317 69.2976 279.281C69.5856 279.239 69.8496 279.176 70.0896 279.092C70.3296 279.002 70.5546 278.891 70.7646 278.759C70.9806 278.627 71.1936 278.465 71.4036 278.273C71.5236 278.165 71.6436 278.111 71.7636 278.111ZM81.9561 271.82V281H80.7861C80.5281 281 80.3631 280.877 80.2911 280.631L80.1471 279.776C79.9551 279.98 79.7511 280.166 79.5351 280.334C79.3251 280.502 79.1001 280.646 78.8601 280.766C78.6201 280.886 78.3621 280.979 78.0861 281.045C77.8161 281.111 77.5251 281.144 77.2131 281.144C76.7091 281.144 76.2651 281.06 75.8811 280.892C75.4971 280.724 75.1731 280.487 74.9091 280.181C74.6511 279.875 74.4561 279.509 74.3241 279.083C74.1921 278.651 74.1261 278.177 74.1261 277.661V271.82H76.0611V277.661C76.0611 278.279 76.2021 278.759 76.4841 279.101C76.7721 279.443 77.2071 279.614 77.7891 279.614C78.2151 279.614 78.6111 279.518 78.9771 279.326C79.3491 279.128 79.6971 278.858 80.0211 278.516V271.82H81.9561ZM89.787 273.485C89.739 273.569 89.685 273.629 89.625 273.665C89.565 273.701 89.49 273.719 89.4 273.719C89.298 273.719 89.187 273.689 89.067 273.629C88.947 273.563 88.806 273.491 88.644 273.413C88.482 273.335 88.29 273.266 88.068 273.206C87.852 273.14 87.597 273.107 87.303 273.107C87.063 273.107 86.844 273.137 86.646 273.197C86.454 273.251 86.289 273.332 86.151 273.44C86.019 273.542 85.917 273.665 85.845 273.809C85.773 273.947 85.737 274.097 85.737 274.259C85.737 274.475 85.803 274.655 85.935 274.799C86.067 274.943 86.241 275.069 86.457 275.177C86.673 275.279 86.919 275.372 87.195 275.456C87.471 275.54 87.753 275.63 88.041 275.726C88.329 275.822 88.611 275.933 88.887 276.059C89.163 276.185 89.409 276.341 89.625 276.527C89.841 276.707 90.015 276.929 90.147 277.193C90.279 277.451 90.345 277.766 90.345 278.138C90.345 278.57 90.267 278.969 90.111 279.335C89.955 279.701 89.727 280.019 89.427 280.289C89.127 280.559 88.752 280.769 88.302 280.919C87.858 281.069 87.348 281.144 86.772 281.144C86.454 281.144 86.145 281.114 85.845 281.054C85.551 281 85.269 280.925 84.999 280.829C84.735 280.727 84.486 280.607 84.252 280.469C84.024 280.331 83.82 280.181 83.64 280.019L84.09 279.281C84.144 279.191 84.21 279.122 84.288 279.074C84.372 279.02 84.474 278.993 84.594 278.993C84.72 278.993 84.843 279.035 84.963 279.119C85.089 279.197 85.233 279.284 85.395 279.38C85.563 279.476 85.764 279.566 85.998 279.65C86.232 279.728 86.523 279.767 86.871 279.767C87.159 279.767 87.408 279.734 87.618 279.668C87.828 279.596 88.002 279.5 88.14 279.38C88.278 279.26 88.38 279.125 88.446 278.975C88.512 278.819 88.545 278.654 88.545 278.48C88.545 278.246 88.479 278.054 88.347 277.904C88.215 277.754 88.038 277.625 87.816 277.517C87.6 277.409 87.351 277.313 87.069 277.229C86.793 277.145 86.511 277.055 86.223 276.959C85.935 276.863 85.65 276.752 85.368 276.626C85.092 276.5 84.843 276.341 84.621 276.149C84.405 275.951 84.231 275.714 84.099 275.438C83.967 275.156 83.901 274.814 83.901 274.412C83.901 274.046 83.973 273.698 84.117 273.368C84.267 273.038 84.483 272.747 84.765 272.495C85.053 272.243 85.404 272.045 85.818 271.901C86.238 271.751 86.721 271.676 87.267 271.676C87.885 271.676 88.446 271.775 88.95 271.973C89.454 272.171 89.877 272.441 90.219 272.783L89.787 273.485ZM95.1064 281.144C94.3444 281.144 93.7564 280.931 93.3424 280.505C92.9344 280.073 92.7304 279.467 92.7304 278.687V273.341H91.7224C91.6144 273.341 91.5214 273.308 91.4434 273.242C91.3654 273.17 91.3264 273.065 91.3264 272.927V272.144L92.8114 271.928L93.2344 269.273C93.2644 269.171 93.3154 269.09 93.3874 269.03C93.4594 268.964 93.5554 268.931 93.6754 268.931H94.6654V271.946H97.2124V273.341H94.6654V278.552C94.6654 278.882 94.7464 279.134 94.9084 279.308C95.0704 279.482 95.2864 279.569 95.5564 279.569C95.7064 279.569 95.8354 279.551 95.9434 279.515C96.0514 279.473 96.1444 279.431 96.2224 279.389C96.3004 279.341 96.3664 279.299 96.4204 279.263C96.4804 279.221 96.5374 279.2 96.5914 279.2C96.6994 279.2 96.7864 279.26 96.8524 279.38L97.4284 280.325C97.1284 280.589 96.7744 280.793 96.3664 280.937C95.9584 281.075 95.5384 281.144 95.1064 281.144ZM102.636 271.676C103.314 271.676 103.926 271.787 104.472 272.009C105.024 272.231 105.492 272.546 105.876 272.954C106.266 273.362 106.566 273.857 106.776 274.439C106.986 275.021 107.091 275.675 107.091 276.401C107.091 277.127 106.986 277.781 106.776 278.363C106.566 278.945 106.266 279.443 105.876 279.857C105.492 280.265 105.024 280.58 104.472 280.802C103.926 281.024 103.314 281.135 102.636 281.135C101.952 281.135 101.334 281.024 100.782 280.802C100.236 280.58 99.7683 280.265 99.3783 279.857C98.9883 279.443 98.6883 278.945 98.4783 278.363C98.2683 277.781 98.1633 277.127 98.1633 276.401C98.1633 275.675 98.2683 275.021 98.4783 274.439C98.6883 273.857 98.9883 273.362 99.3783 272.954C99.7683 272.546 100.236 272.231 100.782 272.009C101.334 271.787 101.952 271.676 102.636 271.676ZM102.636 279.623C103.464 279.623 104.079 279.347 104.481 278.795C104.889 278.237 105.093 277.442 105.093 276.41C105.093 275.378 104.889 274.583 104.481 274.025C104.079 273.461 103.464 273.179 102.636 273.179C101.796 273.179 101.172 273.461 100.764 274.025C100.356 274.583 100.152 275.378 100.152 276.41C100.152 277.442 100.356 278.237 100.764 278.795C101.172 279.347 101.796 279.623 102.636 279.623ZM108.95 281V271.82H110.12C110.384 271.82 110.552 271.943 110.624 272.189L110.75 272.99C110.918 272.798 111.092 272.624 111.272 272.468C111.452 272.306 111.644 272.168 111.848 272.054C112.058 271.934 112.28 271.841 112.514 271.775C112.754 271.709 113.012 271.676 113.288 271.676C113.582 271.676 113.852 271.718 114.098 271.802C114.344 271.886 114.56 272.006 114.746 272.162C114.938 272.318 115.103 272.507 115.241 272.729C115.379 272.951 115.493 273.2 115.583 273.476C115.721 273.158 115.895 272.885 116.105 272.657C116.315 272.429 116.549 272.243 116.807 272.099C117.065 271.955 117.338 271.85 117.626 271.784C117.92 271.712 118.217 271.676 118.517 271.676C119.009 271.676 119.447 271.754 119.831 271.91C120.221 272.066 120.548 272.294 120.812 272.594C121.082 272.888 121.286 273.251 121.424 273.683C121.562 274.115 121.631 274.607 121.631 275.159V281H119.696V275.159C119.696 274.511 119.555 274.025 119.273 273.701C118.997 273.371 118.586 273.206 118.04 273.206C117.794 273.206 117.563 273.248 117.347 273.332C117.131 273.416 116.942 273.539 116.78 273.701C116.618 273.863 116.489 274.067 116.393 274.313C116.303 274.553 116.258 274.835 116.258 275.159V281H114.323V275.159C114.323 274.487 114.188 273.995 113.918 273.683C113.648 273.365 113.252 273.206 112.73 273.206C112.37 273.206 112.037 273.299 111.731 273.485C111.425 273.665 111.143 273.914 110.885 274.232V281H108.95ZM129.913 275.375C129.913 275.051 129.865 274.751 129.769 274.475C129.679 274.193 129.544 273.95 129.364 273.746C129.184 273.536 128.959 273.374 128.689 273.26C128.425 273.14 128.119 273.08 127.771 273.08C127.069 273.08 126.517 273.281 126.115 273.683C125.713 274.085 125.458 274.649 125.35 275.375H129.913ZM125.296 276.563C125.32 277.085 125.401 277.538 125.539 277.922C125.677 278.3 125.86 278.615 126.088 278.867C126.322 279.119 126.598 279.308 126.916 279.434C127.24 279.554 127.6 279.614 127.996 279.614C128.374 279.614 128.701 279.572 128.977 279.488C129.253 279.398 129.493 279.302 129.697 279.2C129.901 279.092 130.075 278.996 130.219 278.912C130.363 278.822 130.495 278.777 130.615 278.777C130.771 278.777 130.891 278.837 130.975 278.957L131.524 279.668C131.296 279.938 131.038 280.166 130.75 280.352C130.462 280.538 130.156 280.691 129.832 280.811C129.508 280.925 129.175 281.006 128.833 281.054C128.491 281.108 128.158 281.135 127.834 281.135C127.198 281.135 126.607 281.03 126.061 280.82C125.521 280.604 125.05 280.289 124.648 279.875C124.252 279.461 123.94 278.948 123.712 278.336C123.49 277.724 123.379 277.019 123.379 276.221C123.379 275.585 123.478 274.991 123.676 274.439C123.88 273.887 124.168 273.407 124.54 272.999C124.918 272.591 125.374 272.27 125.908 272.036C126.448 271.796 127.057 271.676 127.735 271.676C128.299 271.676 128.821 271.769 129.301 271.955C129.781 272.135 130.195 272.402 130.543 272.756C130.891 273.11 131.161 273.545 131.353 274.061C131.551 274.571 131.65 275.153 131.65 275.807C131.65 276.107 131.617 276.308 131.551 276.41C131.485 276.512 131.365 276.563 131.191 276.563H125.296ZM135.281 273.521C135.569 272.939 135.917 272.483 136.325 272.153C136.733 271.817 137.222 271.649 137.792 271.649C137.99 271.649 138.176 271.673 138.35 271.721C138.524 271.763 138.68 271.829 138.818 271.919L138.683 273.377C138.659 273.479 138.62 273.551 138.566 273.593C138.518 273.629 138.452 273.647 138.368 273.647C138.278 273.647 138.149 273.632 137.981 273.602C137.813 273.566 137.636 273.548 137.45 273.548C137.18 273.548 136.94 273.587 136.73 273.665C136.526 273.743 136.34 273.857 136.172 274.007C136.01 274.157 135.866 274.34 135.74 274.556C135.614 274.772 135.497 275.018 135.389 275.294V281H133.454V271.82H134.579C134.783 271.82 134.924 271.859 135.002 271.937C135.08 272.009 135.134 272.138 135.164 272.324L135.281 273.521Z" fill="#1EAD5E"/>
<rect y="252" width="144" height="2" rx="1" fill="#1EAD5E"/>
<rect y="256" width="72" height="2" rx="1" fill="#1EAD5E"/>
<path d="M267.318 215.208C268.15 215.032 268.942 214.904 269.694 214.824C270.462 214.744 271.198 214.704 271.902 214.704C273.71 214.704 275.302 214.976 276.678 215.52C278.07 216.048 279.23 216.784 280.158 217.728C281.102 218.672 281.806 219.784 282.27 221.064C282.75 222.328 282.99 223.704 282.99 225.192C282.99 227.032 282.67 228.704 282.03 230.208C281.39 231.712 280.502 233 279.366 234.072C278.23 235.128 276.886 235.944 275.334 236.52C273.798 237.096 272.134 237.384 270.342 237.384C269.286 237.384 268.278 237.28 267.318 237.072C266.374 236.864 265.486 236.584 264.654 236.232C263.822 235.864 263.054 235.448 262.35 234.984C261.646 234.504 261.014 234.008 260.454 233.496L262.038 231.288C262.374 230.808 262.822 230.568 263.382 230.568C263.734 230.568 264.118 230.696 264.534 230.952C264.95 231.208 265.43 231.488 265.974 231.792C266.534 232.08 267.19 232.352 267.942 232.608C268.694 232.864 269.59 232.992 270.63 232.992C271.766 232.992 272.782 232.808 273.678 232.44C274.574 232.072 275.326 231.56 275.934 230.904C276.558 230.232 277.03 229.432 277.35 228.504C277.67 227.576 277.83 226.56 277.83 225.456C277.83 224.448 277.678 223.544 277.374 222.744C277.086 221.944 276.646 221.264 276.054 220.704C275.478 220.144 274.75 219.72 273.87 219.432C272.99 219.128 271.974 218.976 270.822 218.976C269.974 218.976 269.102 219.048 268.206 219.192C267.326 219.336 266.43 219.56 265.518 219.864L262.302 218.952L265.134 202.44H281.862V204.672C281.862 205.408 281.63 206.008 281.166 206.472C280.702 206.936 279.926 207.168 278.838 207.168H268.71L267.318 215.208Z" fill="#1EAD5E"/>
<path d="M250.69 276.14L248.908 271.406C248.764 271.04 248.617 270.575 248.467 270.011C248.401 270.293 248.329 270.554 248.251 270.794C248.173 271.028 248.101 271.235 248.035 271.415L246.253 276.14H250.69ZM254.677 281H253.048C252.862 281 252.712 280.955 252.598 280.865C252.484 280.769 252.397 280.652 252.337 280.514L251.257 277.652H245.677L244.597 280.514C244.549 280.634 244.465 280.745 244.345 280.847C244.225 280.949 244.075 281 243.895 281H242.266L247.405 268.04H249.538L254.677 281ZM268.181 271.82L265.238 281H263.699C263.519 281 263.393 280.883 263.321 280.649L261.494 274.934C261.446 274.772 261.401 274.61 261.359 274.448C261.323 274.286 261.29 274.127 261.26 273.971C261.194 274.295 261.113 274.619 261.017 274.943L259.163 280.649C259.097 280.883 258.956 281 258.74 281H257.273L254.33 271.82H255.86C256.01 271.82 256.133 271.859 256.229 271.937C256.331 272.009 256.397 272.096 256.427 272.198L257.957 277.544C258.017 277.79 258.068 278.03 258.11 278.264C258.158 278.492 258.2 278.72 258.236 278.948C258.296 278.72 258.359 278.492 258.425 278.264C258.491 278.03 258.56 277.79 258.632 277.544L260.351 272.171C260.381 272.063 260.441 271.976 260.531 271.91C260.627 271.838 260.741 271.802 260.873 271.802H261.719C261.857 271.802 261.974 271.838 262.07 271.91C262.166 271.976 262.229 272.063 262.259 272.171L263.933 277.544C264.005 277.79 264.071 278.03 264.131 278.264C264.197 278.498 264.257 278.732 264.311 278.966C264.353 278.738 264.398 278.507 264.446 278.273C264.494 278.039 264.551 277.796 264.617 277.544L266.174 272.198C266.21 272.09 266.276 272 266.372 271.928C266.468 271.856 266.585 271.82 266.723 271.82H268.181ZM274.375 276.986C273.685 277.01 273.103 277.067 272.629 277.157C272.155 277.241 271.771 277.352 271.477 277.49C271.183 277.622 270.97 277.781 270.838 277.967C270.712 278.153 270.649 278.357 270.649 278.579C270.649 278.795 270.682 278.981 270.748 279.137C270.82 279.287 270.916 279.413 271.036 279.515C271.162 279.611 271.306 279.683 271.468 279.731C271.636 279.773 271.819 279.794 272.017 279.794C272.521 279.794 272.953 279.701 273.313 279.515C273.679 279.323 274.033 279.047 274.375 278.687V276.986ZM269.245 273.098C270.283 272.132 271.519 271.649 272.953 271.649C273.481 271.649 273.949 271.736 274.357 271.91C274.771 272.078 275.116 272.318 275.392 272.63C275.674 272.942 275.887 273.314 276.031 273.746C276.181 274.172 276.256 274.646 276.256 275.168V281H275.392C275.206 281 275.065 280.973 274.969 280.919C274.873 280.859 274.792 280.742 274.726 280.568L274.537 279.821C274.303 280.031 274.072 280.22 273.844 280.388C273.616 280.55 273.379 280.688 273.133 280.802C272.893 280.916 272.632 281 272.35 281.054C272.074 281.114 271.768 281.144 271.432 281.144C271.06 281.144 270.712 281.093 270.388 280.991C270.07 280.889 269.794 280.736 269.56 280.532C269.326 280.322 269.14 280.064 269.002 279.758C268.87 279.452 268.804 279.092 268.804 278.678C268.804 278.324 268.897 277.979 269.083 277.643C269.275 277.307 269.587 277.007 270.019 276.743C270.457 276.473 271.03 276.251 271.738 276.077C272.452 275.903 273.331 275.804 274.375 275.78V275.168C274.375 274.508 274.234 274.016 273.952 273.692C273.67 273.368 273.256 273.206 272.71 273.206C272.338 273.206 272.026 273.254 271.774 273.35C271.522 273.44 271.303 273.539 271.117 273.647C270.931 273.755 270.766 273.857 270.622 273.953C270.478 274.043 270.325 274.088 270.163 274.088C270.031 274.088 269.917 274.055 269.821 273.989C269.731 273.917 269.656 273.83 269.596 273.728L269.245 273.098ZM280.35 273.521C280.638 272.939 280.986 272.483 281.394 272.153C281.802 271.817 282.291 271.649 282.861 271.649C283.059 271.649 283.245 271.673 283.419 271.721C283.593 271.763 283.749 271.829 283.887 271.919L283.752 273.377C283.728 273.479 283.689 273.551 283.635 273.593C283.587 273.629 283.521 273.647 283.437 273.647C283.347 273.647 283.218 273.632 283.05 273.602C282.882 273.566 282.705 273.548 282.519 273.548C282.249 273.548 282.009 273.587 281.799 273.665C281.595 273.743 281.409 273.857 281.241 274.007C281.079 274.157 280.935 274.34 280.809 274.556C280.683 274.772 280.566 275.018 280.458 275.294V281H278.523V271.82H279.648C279.852 271.82 279.993 271.859 280.071 271.937C280.149 272.009 280.203 272.138 280.233 272.324L280.35 273.521ZM290.727 274.079C290.457 273.731 290.16 273.488 289.836 273.35C289.512 273.212 289.161 273.143 288.783 273.143C288.027 273.143 287.436 273.422 287.01 273.98C286.584 274.532 286.371 275.351 286.371 276.437C286.371 277.001 286.419 277.484 286.515 277.886C286.611 278.282 286.749 278.606 286.929 278.858C287.109 279.11 287.328 279.293 287.586 279.407C287.844 279.521 288.135 279.578 288.459 279.578C288.951 279.578 289.374 279.473 289.728 279.263C290.088 279.047 290.421 278.744 290.727 278.354V274.079ZM292.662 267.68V281H291.492C291.234 281 291.069 280.877 290.997 280.631L290.826 279.632C290.442 280.082 290.004 280.445 289.512 280.721C289.026 280.997 288.459 281.135 287.811 281.135C287.295 281.135 286.827 281.033 286.407 280.829C285.987 280.619 285.627 280.316 285.327 279.92C285.027 279.524 284.793 279.035 284.625 278.453C284.463 277.865 284.382 277.193 284.382 276.437C284.382 275.753 284.472 275.12 284.652 274.538C284.838 273.956 285.102 273.452 285.444 273.026C285.786 272.594 286.2 272.258 286.686 272.018C287.178 271.772 287.727 271.649 288.333 271.649C288.873 271.649 289.332 271.736 289.71 271.91C290.088 272.078 290.427 272.315 290.727 272.621V267.68H292.662ZM300.51 273.485C300.462 273.569 300.408 273.629 300.348 273.665C300.288 273.701 300.213 273.719 300.123 273.719C300.021 273.719 299.91 273.689 299.79 273.629C299.67 273.563 299.529 273.491 299.367 273.413C299.205 273.335 299.013 273.266 298.791 273.206C298.575 273.14 298.32 273.107 298.026 273.107C297.786 273.107 297.567 273.137 297.369 273.197C297.177 273.251 297.012 273.332 296.874 273.44C296.742 273.542 296.64 273.665 296.568 273.809C296.496 273.947 296.46 274.097 296.46 274.259C296.46 274.475 296.526 274.655 296.658 274.799C296.79 274.943 296.964 275.069 297.18 275.177C297.396 275.279 297.642 275.372 297.918 275.456C298.194 275.54 298.476 275.63 298.764 275.726C299.052 275.822 299.334 275.933 299.61 276.059C299.886 276.185 300.132 276.341 300.348 276.527C300.564 276.707 300.738 276.929 300.87 277.193C301.002 277.451 301.068 277.766 301.068 278.138C301.068 278.57 300.99 278.969 300.834 279.335C300.678 279.701 300.45 280.019 300.15 280.289C299.85 280.559 299.475 280.769 299.025 280.919C298.581 281.069 298.071 281.144 297.495 281.144C297.177 281.144 296.868 281.114 296.568 281.054C296.274 281 295.992 280.925 295.722 280.829C295.458 280.727 295.209 280.607 294.975 280.469C294.747 280.331 294.543 280.181 294.363 280.019L294.813 279.281C294.867 279.191 294.933 279.122 295.011 279.074C295.095 279.02 295.197 278.993 295.317 278.993C295.443 278.993 295.566 279.035 295.686 279.119C295.812 279.197 295.956 279.284 296.118 279.38C296.286 279.476 296.487 279.566 296.721 279.65C296.955 279.728 297.246 279.767 297.594 279.767C297.882 279.767 298.131 279.734 298.341 279.668C298.551 279.596 298.725 279.5 298.863 279.38C299.001 279.26 299.103 279.125 299.169 278.975C299.235 278.819 299.268 278.654 299.268 278.48C299.268 278.246 299.202 278.054 299.07 277.904C298.938 277.754 298.761 277.625 298.539 277.517C298.323 277.409 298.074 277.313 297.792 277.229C297.516 277.145 297.234 277.055 296.946 276.959C296.658 276.863 296.373 276.752 296.091 276.626C295.815 276.5 295.566 276.341 295.344 276.149C295.128 275.951 294.954 275.714 294.822 275.438C294.69 275.156 294.624 274.814 294.624 274.412C294.624 274.046 294.696 273.698 294.84 273.368C294.99 273.038 295.206 272.747 295.488 272.495C295.776 272.243 296.127 272.045 296.541 271.901C296.961 271.751 297.444 271.676 297.99 271.676C298.608 271.676 299.169 271.775 299.673 271.973C300.177 272.171 300.6 272.441 300.942 272.783L300.51 273.485Z" fill="#1EAD5E"/>
<rect x="200" y="252" width="144" height="2" rx="1" fill="#1EAD5E"/>
<rect x="200" y="256" width="72" height="2" rx="1" fill="#1EAD5E"/>
</svg>
