<svg width="40" height="40" viewBox="0 0 40 40" fill="none" xmlns="http://www.w3.org/2000/svg">
<circle cx="20" cy="20" r="20" fill="#1EAD5E"/>
<path d="M26.4062 10.125H22.5C22.5 8.40137 21.0986 7 19.375 7C17.6514 7 16.25 8.40137 16.25 10.125H12.3438C11.0498 10.125 10 11.1748 10 12.4688V29.6562C10 30.9502 11.0498 32 12.3438 32H26.4062C27.7002 32 28.75 30.9502 28.75 29.6562V12.4688C28.75 11.1748 27.7002 10.125 26.4062 10.125ZM14.6875 27.7031C14.0381 27.7031 13.5156 27.1807 13.5156 26.5312C13.5156 25.8818 14.0381 25.3594 14.6875 25.3594C15.3369 25.3594 15.8594 25.8818 15.8594 26.5312C15.8594 27.1807 15.3369 27.7031 14.6875 27.7031ZM14.6875 23.0156C14.0381 23.0156 13.5156 22.4932 13.5156 21.8438C13.5156 21.1943 14.0381 20.6719 14.6875 20.6719C15.3369 20.6719 15.8594 21.1943 15.8594 21.8438C15.8594 22.4932 15.3369 23.0156 14.6875 23.0156ZM14.6875 18.3281C14.0381 18.3281 13.5156 17.8057 13.5156 17.1562C13.5156 16.5068 14.0381 15.9844 14.6875 15.9844C15.3369 15.9844 15.8594 16.5068 15.8594 17.1562C15.8594 17.8057 15.3369 18.3281 14.6875 18.3281ZM19.375 8.95312C20.0244 8.95312 20.5469 9.47559 20.5469 10.125C20.5469 10.7744 20.0244 11.2969 19.375 11.2969C18.7256 11.2969 18.2031 10.7744 18.2031 10.125C18.2031 9.47559 18.7256 8.95312 19.375 8.95312ZM25.625 26.9219C25.625 27.1367 25.4492 27.3125 25.2344 27.3125H18.2031C17.9883 27.3125 17.8125 27.1367 17.8125 26.9219V26.1406C17.8125 25.9258 17.9883 25.75 18.2031 25.75H25.2344C25.4492 25.75 25.625 25.9258 25.625 26.1406V26.9219ZM25.625 22.2344C25.625 22.4492 25.4492 22.625 25.2344 22.625H18.2031C17.9883 22.625 17.8125 22.4492 17.8125 22.2344V21.4531C17.8125 21.2383 17.9883 21.0625 18.2031 21.0625H25.2344C25.4492 21.0625 25.625 21.2383 25.625 21.4531V22.2344ZM25.625 17.5469C25.625 17.7617 25.4492 17.9375 25.2344 17.9375H18.2031C17.9883 17.9375 17.8125 17.7617 17.8125 17.5469V16.7656C17.8125 16.5508 17.9883 16.375 18.2031 16.375H25.2344C25.4492 16.375 25.625 16.5508 25.625 16.7656V17.5469Z" fill="white"/>
</svg>
