<svg width="47" height="47" viewBox="0 0 47 47" fill="none" xmlns="http://www.w3.org/2000/svg">
<path d="M23.3537 0.3927C20.3345 0.3927 17.3448 0.987379 14.5554 2.14278C11.766 3.29819 9.23152 4.99169 7.09661 7.1266C2.78497 11.4382 0.362717 17.2861 0.362717 23.3837C0.362717 29.4812 2.78497 35.3291 7.09661 39.6407C9.23152 41.7756 11.766 43.4691 14.5554 44.6245C17.3448 45.7799 20.3345 46.3746 23.3537 46.3746C29.4513 46.3746 35.2991 43.9524 39.6107 39.6407C43.9224 35.3291 46.3446 29.4812 46.3446 23.3837C46.3446 20.3644 45.75 17.3748 44.5946 14.5854C43.4392 11.796 41.7457 9.26151 39.6107 7.1266C37.4758 4.99169 34.9413 3.29819 32.1519 2.14278C29.3625 0.987379 26.3729 0.3927 23.3537 0.3927ZM11.8582 17.6359C11.8582 15.7966 13.4676 14.1873 15.3068 14.1873C17.1461 14.1873 18.7555 15.7966 18.7555 17.6359C18.7555 19.4752 17.1461 21.0846 15.3068 21.0846C13.4676 21.0846 11.8582 19.4752 11.8582 17.6359ZM23.3537 35.4079C19.3303 35.4079 15.7897 33.7296 13.7205 31.2466L16.9852 27.9819C18.0198 29.6372 20.4798 30.8097 23.3537 30.8097C26.2275 30.8097 28.6876 29.6372 29.7222 27.9819L32.9869 31.2466C30.9177 33.7296 27.3771 35.4079 23.3537 35.4079ZM31.4005 21.0846C29.5612 21.0846 27.9519 19.4752 27.9519 17.6359C27.9519 15.7966 29.5612 14.1873 31.4005 14.1873C33.2398 14.1873 34.8492 15.7966 34.8492 17.6359C34.8492 19.4752 33.2398 21.0846 31.4005 21.0846Z" fill="#1EAD5E"/>
</svg>
