<svg width="26" height="18" viewBox="0 0 26 18" fill="none" xmlns="http://www.w3.org/2000/svg">
<path opacity="0.973" fill-rule="evenodd" clip-rule="evenodd" d="M25.7358 9.20464C25.7358 11.8042 25.7358 14.4038 25.7358 17.0034C25.5836 17.4076 25.3096 17.6861 24.914 17.839C23.657 17.8727 22.4001 17.8727 21.1432 17.839C20.8039 17.7199 20.5541 17.492 20.3939 17.1553C20.3257 16.7206 20.3015 16.2817 20.3213 15.8386C15.6804 15.8386 11.0394 15.8386 6.3984 15.8386C6.41822 16.2817 6.39405 16.7206 6.32588 17.1553C6.16567 17.492 5.91588 17.7199 5.57656 17.839C4.31962 17.8727 3.06269 17.8727 1.80576 17.839C1.4101 17.6861 1.13615 17.4076 0.983917 17.0034C0.983917 14.4038 0.983917 11.8042 0.983917 9.20464C1.15038 8.48437 1.4485 7.82603 1.87827 7.22963C2.46246 6.65951 3.06675 6.11932 3.69116 5.60911C3.29225 5.50018 2.88939 5.40735 2.48257 5.33058C2.38496 5.30779 2.29633 5.26561 2.21668 5.20398C2.16232 4.90545 2.13815 4.6016 2.14416 4.29244C2.15222 4.02237 2.16028 3.75225 2.16833 3.48218C2.18642 3.43579 2.2106 3.39356 2.24085 3.35558C3.04214 3.27268 3.84787 3.25581 4.65803 3.30493C4.74666 3.33025 4.80306 3.38935 4.82723 3.48218C4.87971 3.73219 4.91193 3.9854 4.92392 4.2418C5.05284 4.03923 5.18175 3.83667 5.31067 3.6341C5.66968 2.83139 6.04032 2.03799 6.42257 1.25396C6.88937 0.633559 7.49367 0.236871 8.23545 0.0638961C11.6517 0.0301336 15.068 0.0301336 18.4843 0.0638961C19.2277 0.23754 19.832 0.634233 20.2972 1.25396C20.6858 2.035 21.0564 2.8284 21.4091 3.6341C21.5422 3.86239 21.6872 4.08182 21.8442 4.29244C21.8603 4.02237 21.8764 3.75225 21.8925 3.48218C21.9167 3.38935 21.9731 3.33025 22.0617 3.30493C22.8719 3.25581 23.6776 3.27268 24.4789 3.35558C24.5092 3.39356 24.5333 3.43579 24.5514 3.48218C24.5595 3.75225 24.5675 4.02237 24.5756 4.29244C24.5816 4.6016 24.5574 4.90545 24.5031 5.20398C24.4234 5.26561 24.3348 5.30779 24.2372 5.33058C23.8304 5.40735 23.4275 5.50018 23.0286 5.60911C23.653 6.11932 24.2573 6.65951 24.8415 7.22963C25.2712 7.82603 25.5694 8.48437 25.7358 9.20464ZM8.71889 0.848835C11.943 0.824927 15.1659 0.850248 18.3876 0.924797C18.8735 1.08219 19.2844 1.36072 19.6204 1.76038C19.9899 2.52612 20.3525 3.29415 20.7081 4.06455C15.8093 4.09833 10.9104 4.09833 6.01165 4.06455C6.37408 3.29739 6.73666 2.52931 7.09938 1.76038C7.53157 1.23457 8.07137 0.930712 8.71889 0.848835ZM2.91766 4.08987C3.30441 4.08987 3.69116 4.08987 4.07791 4.08987C4.08592 4.32682 4.07787 4.56311 4.05373 4.79885C3.67946 4.69848 3.30077 4.61406 2.91766 4.54564C2.91766 4.39372 2.91766 4.2418 2.91766 4.08987ZM22.6418 4.08987C23.0286 4.08987 23.4153 4.08987 23.8021 4.08987C23.8021 4.2418 23.8021 4.39372 23.8021 4.54564C23.419 4.61406 23.0403 4.69848 22.666 4.79885C22.6419 4.56311 22.6338 4.32682 22.6418 4.08987ZM5.47987 4.90013C10.7332 4.89167 15.9866 4.90013 21.2399 4.92545C21.7072 5.55001 22.239 6.10706 22.8352 6.59661C21.9022 7.00129 20.9676 7.40642 20.0313 7.812C19.6768 8.18335 19.3222 8.55476 18.9677 8.92611C17.4207 8.94297 15.8737 8.95989 14.3267 8.97675C13.9972 9.27974 13.6749 9.59199 13.3599 9.91361C13.0449 9.59199 12.7226 9.27974 12.393 8.97675C10.846 8.95989 9.29901 8.94297 7.75202 8.92611C7.39751 8.55476 7.04296 8.18335 6.68846 7.812C5.75217 7.40642 4.81753 7.00129 3.88453 6.59661C4.49078 6.10504 5.02256 5.53958 5.47987 4.90013ZM3.11103 7.22963C4.1343 7.64879 5.14951 8.08769 6.15668 8.5463C6.05274 8.68055 5.93995 8.80715 5.81827 8.92611C4.75293 8.97336 3.68937 8.95644 2.6276 8.87547C2.39826 8.7753 2.25323 8.59806 2.19251 8.34374C2.43245 7.90584 2.73863 7.53449 3.11103 7.22963ZM23.5604 7.22963C23.9703 7.51226 24.2926 7.88361 24.5272 8.34374C24.4665 8.59806 24.3215 8.7753 24.0921 8.87547C23.0304 8.95644 21.9668 8.97336 20.9015 8.92611C20.7798 8.80715 20.667 8.68055 20.5631 8.5463C21.5615 8.09666 22.5605 7.6578 23.5604 7.22963ZM6.7368 9.20464C6.95145 9.36988 7.16092 9.54712 7.36527 9.73637C8.91226 9.75323 10.4593 9.77015 12.0062 9.78701C12.3608 10.1584 12.7153 10.5298 13.0698 10.9011C13.2632 11.0024 13.4566 11.0024 13.6499 10.9011C14.0044 10.5298 14.359 10.1584 14.7135 9.78701C16.2605 9.77015 17.8075 9.75323 19.3545 9.73637C19.555 9.56854 19.7484 9.3913 19.9346 9.20464C20.1208 9.3913 20.3142 9.56854 20.5147 9.73637C21.7556 9.77015 22.9963 9.77015 24.2372 9.73637C24.4945 9.68183 24.712 9.55523 24.8898 9.35656C24.9515 9.89472 24.9757 10.4349 24.9623 10.9771C24.1725 10.9686 23.3829 10.9771 22.5935 11.0024C22.1173 11.1064 21.7063 11.3343 21.3607 11.6861C21.2162 12.0586 21.329 12.2949 21.6991 12.395C22.034 12.1971 22.3804 12.0198 22.7385 11.8633C23.0904 11.8001 23.4449 11.7748 23.8021 11.7873C23.8428 12.1927 23.73 12.5388 23.4637 12.8255C23.3309 12.9141 23.1859 12.9647 23.0286 12.9774C22.5774 12.9943 22.1262 13.0112 21.675 13.028C21.5292 13.1055 21.4647 13.2321 21.4816 13.4079C21.4769 13.5307 21.5091 13.6405 21.5783 13.737C21.8956 13.7942 22.2179 13.8195 22.5451 13.813C23.9641 13.947 24.6409 13.2717 24.5756 11.7873C24.7045 11.7873 24.8334 11.7873 24.9623 11.7873C24.9704 12.4627 24.9623 13.138 24.9382 13.813C24.8916 14.385 24.6096 14.7648 24.0921 14.9524C23.514 15.0081 22.9338 15.0334 22.3518 15.0284C21.8683 15.0199 21.3849 15.0115 20.9015 15.0031C20.5294 14.5964 20.1426 14.2081 19.7412 13.8383C19.4528 13.662 19.1465 13.5269 18.8227 13.4332C15.1163 13.3994 11.41 13.3994 7.70367 13.4332C7.37982 13.5269 7.07361 13.662 6.78514 13.8383C6.38375 14.2081 5.997 14.5964 5.6249 15.0031C4.72248 15.0368 3.82007 15.0368 2.91766 15.0031C2.24891 14.9102 1.87021 14.5135 1.78159 13.813C1.75742 13.138 1.74936 12.4627 1.75741 11.7873C1.88633 11.7873 2.01524 11.7873 2.14416 11.7873C2.07879 13.2717 2.7556 13.947 4.17459 13.813C4.50183 13.8195 4.82412 13.7942 5.14146 13.737C5.25953 13.5318 5.26759 13.3208 5.16564 13.104C5.12936 13.0723 5.08907 13.047 5.04478 13.028C4.59357 13.0112 4.14236 12.9943 3.69116 12.9774C3.34957 12.9548 3.11591 12.7775 2.99018 12.4457C2.93819 12.2294 2.91401 12.01 2.91766 11.7873C3.2748 11.7748 3.62933 11.8001 3.98122 11.8633C4.33933 12.0198 4.6858 12.1971 5.0206 12.395C5.4256 12.2723 5.52229 12.0191 5.31067 11.6354C4.96999 11.3191 4.57518 11.1081 4.12625 11.0024C3.3368 10.9771 2.54719 10.9686 1.75741 10.9771C1.74407 10.4349 1.76824 9.89472 1.82993 9.35656C2.00768 9.55523 2.22523 9.68183 2.48257 9.73637C3.72339 9.77015 4.9642 9.77015 6.20502 9.73637C6.40652 9.58434 6.58379 9.4071 6.7368 9.20464ZM8.13876 14.2181C11.5551 14.2097 14.9714 14.2181 18.3876 14.2434C18.9282 14.2987 19.3633 14.5519 19.6929 15.0031C15.4064 15.0368 11.12 15.0368 6.83349 15.0031C7.17281 14.5555 7.6079 14.2939 8.13876 14.2181ZM1.75741 15.4841C1.97866 15.6376 2.22038 15.7473 2.48257 15.8133C3.52989 15.8386 4.57733 15.8471 5.6249 15.8386C5.64277 16.164 5.6186 16.4847 5.55238 16.8008C5.48765 16.9322 5.38291 17.0081 5.23815 17.0287C4.20682 17.0625 3.17549 17.0625 2.14416 17.0287C1.92662 17.0034 1.80576 16.8768 1.78159 16.6489C1.75743 16.261 1.74937 15.8728 1.75741 15.4841ZM24.914 15.4841C24.9699 15.8634 24.9779 16.2516 24.9382 16.6489C24.914 16.8768 24.7931 17.0034 24.5756 17.0287C23.5443 17.0625 22.5129 17.0625 21.4816 17.0287C21.3368 17.0081 21.2321 16.9322 21.1674 16.8008C21.1011 16.4847 21.077 16.164 21.0948 15.8386C22.1424 15.8471 23.1899 15.8386 24.2372 15.8133C24.4841 15.7429 24.7097 15.6332 24.914 15.4841Z" fill="#1EAD5E"/>
</svg>
